<?xml version="1.0" encoding="utf-8"?>
<!-- Generator: Adobe Illustrator 21.0.0, SVG Export Plug-In . SVG Version: 6.00 Build 0)  -->
<svg version="1.1" id="Layer_1" xmlns="http://www.w3.org/2000/svg" xmlns:xlink="http://www.w3.org/1999/xlink" x="0px" y="0px"
	 viewBox="0 0 2029.8 500" style="enable-background:new 0 0 2029.8 500;" xml:space="preserve">
<style type="text/css">
	.st0{fill:#FFBF00;}
</style>
<g>
	<g>
		<path d="M666.1,386.9v-18.1l37.4-9.1l12.6-222.6l-34.7-8.1l0.4-17.9h84.3l88.7,205.7l89.4-205.7h81.2V129l-35.5,8.1l13.4,223
			l37.8,8.7v18.1H921.4v-18.1l34.7-8.3l-10.6-187.2L852,388.9h-17.3L740.1,173l-9.9,187.5l35.1,8.3v18.1H666.1z"/>
		<path d="M1066.3,298.1c0-24.6,7-45.2,21.1-61.8c14.1-16.6,33.5-25,58.3-25c12.9,0,24.3,2.4,34,7.2c9.7,4.8,17.4,11.4,23.1,19.9
			c5.7,8.5,9.9,18,12.6,28.5c2.7,10.5,4,21.9,4,34.2h-113.2c1.6,18.2,7.7,33.7,18.4,46.5c10.7,12.8,25.3,19.2,43.9,19.2
			c11.8,0,24.7-2.5,38.5-7.4l5.7,15.7c-20.8,9.2-40.5,13.7-59.3,13.7c-27,0-48.3-8.8-63.8-26.5
			C1074,344.8,1066.3,323.4,1066.3,298.1z M1106.1,284.4l71.7-5.4c-0.7-13.3-3.8-24.8-9.4-34.6c-5.6-9.8-13.5-14.6-23.8-14.6
			c-11.2,0-20.3,5.2-27.3,15.6C1110.3,255.9,1106.6,268.8,1106.1,284.4z"/>
		<path d="M1254.5,306.2c0-30.1,9.3-53.5,27.8-70c18.5-16.5,41-24.8,67.3-24.8c9.4,0,17.5,1,24.4,3v-71.3h-28.5v-14.4l53.6-12.7
			h15.1v246.2h26.1v11.1l-5.4,4.4c-2.2,1.8-6.4,4.1-12.6,7s-12.1,4.4-17.9,4.4c-2.5,0-4.9-0.3-7.2-0.8c-2.3-0.6-4.4-1.3-6.2-2.2
			c-1.8-0.9-3.5-2-5-3.2c-1.6-1.2-2.8-2.4-3.9-3.5c-1-1.1-2-2.3-3-3.7c-1-1.3-1.7-2.5-2.2-3.3c-0.5-0.9-1-1.9-1.7-3l-0.7-1.3
			c-13.4,14.1-29.9,21.1-49.6,21.1c-19.4,0-36.1-7.1-49.9-21.3C1261.4,353.4,1254.5,333,1254.5,306.2z M1295.7,304.6
			c0,19.2,4.3,33.7,12.9,43.8c8.6,10,18.8,15,30.6,15c12.5,0,24.1-4.1,34.8-12.4V233.1c-6.9-2.2-14.1-3.3-21.4-3.3
			c-17,0-30.7,6.3-41.2,19C1300.9,261.5,1295.7,280.1,1295.7,304.6z"/>
		<path d="M1459.4,230.8v-14.4h68.3V332c0,22.3,9.6,33.5,28.8,33.5c15.2,0,29.5-5.7,42.9-17.1V237.5l-21.8-6.7v-14.4h61.6v145.7
			h26.1v11.1c-5.4,4.7-11.3,8.5-17.9,11.4c-6.6,2.9-13.1,4.4-19.6,4.4c-5.1,0-9.7-1-13.6-2.8c-3.9-1.9-6.9-4.3-8.9-7.2
			c-2-2.9-3.5-5.3-4.4-7.2c-0.9-1.9-1.5-3.5-1.7-4.9c-17.6,14.7-36.6,22.1-56.9,22.1c-17.9,0-31.4-4.8-40.7-14.4
			c-9.3-9.6-13.9-22.3-13.9-38.2v-98.8L1459.4,230.8z"/>
		<path d="M1696.5,381.2v-47.9h15.4l12.7,35.2c7.8,1.3,16.5,2,26.1,2c14.3,0,24.4-1.8,30.3-5.5c5.9-3.7,8.9-10,8.9-18.9
			c0-6.9-3.2-12.7-9.7-17.2c-6.5-4.6-17.6-10-33.5-16.2c-15-6.2-26.6-13.7-34.8-22.3c-8.3-8.6-12.4-19.5-12.4-32.7
			c0-15,6.3-26.4,18.9-34.3c12.6-7.9,29.1-11.9,49.4-11.9c17.6,0,33.6,2.1,47.9,6.4v45.5h-14.1l-11.1-31.5
			c-6.5-1.8-14.1-2.7-22.8-2.7c-12.1,0-20.5,1.8-25.3,5.5c-4.8,3.7-7.2,9.2-7.2,16.6c0,4.2,1.6,8,4.7,11.4c3.1,3.3,6.6,6.1,10.6,8.2
			c3.9,2.1,10.2,5.1,18.9,8.9c20.3,8.5,34.9,17,43.7,25.6c8.8,8.6,13.2,19.7,13.2,33.3c0,16.3-6.6,28.8-19.8,37.3
			c-13.2,8.6-30.4,12.9-51.6,12.9C1734.2,388.9,1714.6,386.3,1696.5,381.2z"/>
		<path d="M1860.6,342.3c0-38.6,34.3-57.9,102.8-57.9v-11.7c0-19.4-2.7-31.8-8.2-37c-5.5-5.2-14-7.9-25.6-7.9l-39.2,33.5
			c-5.4-3.4-9.9-8.1-13.6-14.2c-3.7-6.1-5.6-12.7-5.9-19.6c9.4-5.1,19.6-9.1,30.8-11.9c11.2-2.8,22.2-4.2,33.2-4.2
			c45.8,0,68.7,19.2,68.7,57.6v93.1h26.1v11.1c-5.1,4.9-10.8,8.8-17.1,11.6c-6.3,2.8-12.4,4.2-18.4,4.2c-13.2,0-22.9-5.7-29.1-17.1
			c-15,11.4-31.8,17.1-50.6,17.1c-14.7,0-27.4-3.9-38-11.7C1865.9,369.3,1860.6,357.7,1860.6,342.3z M1902.8,341
			c0,8.3,2.7,14.4,8.2,18.4c5.5,4,12.4,6,20.9,6c12.3,0,22.8-3.8,31.5-11.4v-52.6c-20.1,0-35.2,3.6-45.4,10.9
			C1907.9,319.6,1902.8,329.2,1902.8,341z"/>
	</g>
	<g>
		<g>
			<path class="st0" d="M250,41.7c114.9,0,208.3,93.5,208.3,208.3S364.9,458.3,250,458.3S41.7,364.9,41.7,250S135.1,41.7,250,41.7
				 M250,0C111.9,0,0,111.9,0,250s111.9,250,250,250s250-111.9,250-250S388.1,0,250,0L250,0z"/>
			<path class="st0" d="M291.7,250c0-49.8-13.9-93.8-35.1-120.6c-3.6-4.5-9.5-4.5-13.1,0c-21.3,26.8-35.1,70.8-35.1,120.6
				s13.9,93.8,35.1,120.6c3.6,4.5,9.5,4.5,13.1,0C277.8,343.8,291.7,299.8,291.7,250z"/>
		</g>
	</g>
</g>
</svg>
