<svg xmlns="http://www.w3.org/2000/svg" viewBox="0 0 1664.48 2023.41"><defs><style>.cls-1{fill-rule:evenodd;}</style></defs><title>medusa</title><g id="Layer_2" data-name="Layer 2"><g id="Layer_1-2" data-name="Layer 1"><path class="cls-1" d="M1254.15,481.86C1279.54,500,1355.93,492.3,1363,546.3c35.49,5.38,89.44-9.57,102.3,25.5-30.44,10.86-50.67,31.61-59,64-6.8,3.24-18,2.18-23.87,6.38,1.68,3.11,17.35-2.85,24,2.62-2.14,7.78-9.4,10.59-20.84,9.33,4.18,11.66,13.4.41,21.08,5.7-1.55,2.44-3.06,4.93-2.86,9.06,30.3,24,60.68-16.66,92.63-19.43,55.56-4.82,75.09,38.54,115,70.36,1.17,40.59-39.07,27.54-65.37,37,5.63.05,23.08,1.27,36,2.47-22.19,12-60.52,3.61-80.8,10.24,21.47,8.31,44.22.45,69.06,8-11.86,3.71-19.35,2.87-35.88,6.55,6.23,6.82,24.93.72,36,2.46,28.33,25.64,61.83,45.93,94,67.68C1664,925.77,1577,829,1562.81,870.73c11.48,4.07,9.63,4.28,12.22,14.81,6.83-5.66,39.7,8.13,48.28,20.3-4.46,21.49-35.54,19.34-50.74,15.79-.57-9.45,7.55-10.43,14.82-12.24-14.7-18.54-40.88-34-36.92-62.52-10.73-4.51-1.66,10.2-8.88,9.14-61.22-27.24-115.89-21.86-195.09-18.07-.62-10.56-14.89-7-12.31-20.84,11.88-2.81,15-2.85,27-.41-.78,6.12-5.88,8.08-8.81,12.13,14.64,3.27,36-3.16,50.92-3.75-8.2-6.82-28.92-.64-42-2.38,8.46-10.52,32-6.36,47.81-9.76,2.27-11.5-14.51-3.3-12.21-14.81,18.67-8,28-9.11,38.63-21.62-9.77-3.57-2.15,9.73-11.89,6.18-.56-14.35,4.41-23.31,14.58-27.27-5.13-9.24-14.08-19.24-9.45-29.88,17.95-2.27,27.86-12.37,38.63-21.63,36.38,9.72,73.92,10.28,111,7.33-34.81-58.85-112.82-37.81-165-6.49-3.69-31.78-49.55-20-75.38-28.91-10.28-13.8-26.53-21.4-42.4-29.39-15.89,6.09-14.9,20.41-11.5,33.22,34.94,21,58.74,39.07,105.58,43.46,9.5-2.61,3.88-19.89,17.71-18.29-4.11,30.53-32.4,37.56-41,63.7-9.75-1.6-13.9,2.26-20.92,3.33,6.94,7.18,10.65,3.47,21,2.69-8,12.64-51.66,22.09-59.85,6.92-21.47,14.21-57,5.72-62.34,40,14.08,9.84,24.71,23.27,33.56,38.55-.44,43-47.33,40.77-83.18,49.31,9.75,11.58,41.59-8.31,45.18,14.35-17.2,1-38.24-1.68-50.9,3.78,13.7,8.81,29.12,3.4,57,5.15-15.18,5.64-13.93,9.81-38.76,12.59,8.18,6.8,28.91.63,42,2.37,0,12.88-17.85,8.29-29.83,9.46,20.06,8,35.76-3.07,51,2.23-.34,7.48,4.86,9.22,6.23,14.93,22.59,1,50-25,74.79-10.17-.85,12-24.56,1.79-29.84,9.49,4.6,6.91,7.4,4.45,15,2.76,25.44,56.79,93.59,4.17,153.26,24.7,4.41-1.62,7.47-4.55,11.89-6.18-3.45-36.91,5.77-60.53-19.21-80.82-4,6-8.13,11.82-20.86,9.35-2.85-10.27-9.88-16.21-15.34-23.81-34.4,9.29-67.61-11.15-110.93-1.32.19,9,22.14-4.55,18.13,8.74-5.14,1.51-30,1.75-39-2.4,3.31-13.76,15.28-9.6,26.78-12.43,64.75-16,149.83-39.23,189.08,15.14,16.3-1.58,30.79-1.29,30.19,14.58-24.88,2.34-39.55-5.91-51.22-17.26-5.39,39.87,10.53,76,1.71,111.14,5,7,12.89,11.06,18.25,17.74,2.79,9.62-9.81,4.26-8.81,12.15,5.13,0,7.73-2.35,8.9-6.15,5.65.23,2.21,9.88,9.11,8.87-.87,16.33-9.48,20.16.53,33-15.52,11.56-15,38.76-35.28,45.6,13.83,28.41,28.81,65.66-1.68,87.15,4.45,16.59-2.22,18.43-2.44,36.09,4.53,15.66,20.5,19.49,27.48,32.62-1,12.88-13.49,14.53-26.75,15.42-6.49,6.53-6.18,19.65-23.75,15.39,3.73-9.45,13.51-24.63,20.66-21.35,3.66-11.93-8.84-7.13-9.22-14.87-29.69,9.79-58.42,11.46-95.67,16.47.21-13.6,20.21-8,32.83-9.5-3.44-7.6-23.16,1.56-27.08-5.61,1.2-6.72,14.77-1.45,20.95-3.32-13.62-9.3-50.76,5.67-60.08-8.08-1.09-12.26,6.23-1.72,12-3.2-15.67-19.21-37.83-2.48-57.08-8.15-8.9,3.69,11,2.43,6.17,11.93-15.91.16-19.51-12.36-30.23-17.55,24.84-2.3,49.74,2.67,59.93-.93-5.31-4.66-16-3.78-24.06-5.65,5.91-11.12-3.22-9-12.16-11.81.51-9.38,14.83-5.31,23.87-6.39-4.92-5.42-16.61-13.56,2.82-12-18.76-7.89-32.6-4.31-60-5.09,6.36,10.77,15.41,4.87,24.1,8.63-2.29,2.73-3.11,6.84-2.8,12.07-10.21,5.06-38.62,6.35-45-2.29,4.56-7.7,13.14-7.88-.18-12,2-9.8,16.89-2.38,8.78-15.18,41.78-4.55,70.28,4.67,108,4.37.59,8.41-8.34,9.93-11.9,6.18.54,6.55,7.66,6.36,15.09,5.77,9.48-31.17-58.28-8.89-69.39-29-12.12,9.21-28.12,9.33-44.91,3.68,9.67-14.35,35.18-3.44,53.89-3.82,15.89-.34,55.14-6.88,21-.32,9.9,8.51,33.29-.79,23.8-12.38-.84-7.72-5.1,4.22-12,.19.8-6.14,8-6,8.8-12.16-6,1.13-9.39-.45-9.08-5.85-21.78,6.88-55.05,11.36-72-4.92,32.11-4.19,40.65,2.27,63,5.05,5.35-5.24-1.1-11.8-9.18-11.88,7.18-2.87,4.54-15.33,11.73-18.21-13.59-36-40.18-89.1-84.94-64.78-15,1.25-16.71-11.2-33.11-8.51,28.4,34.08,59.63,53.29,79.12,76.9,6.17-6,19.85-2.62,27-.41-2.66,5.3-.79,15-5.72,18.1-6.66-7.71-19.7,4.08-45-2.32-3.24-10.06,9.25-4.82,14.9-6.23-2-7.1-18.45.75-21.07-5.69-7.33-10.33-2.27-21.6-6.46-29.94-6.41-1.3-5.66,4.38-5.86,9.09-21.68-7.08-26.89-31.2-51.49-35.26,7,20.19,28.28,41.2,40,65.49-9,8.43-9.55-10.42-21.12-8.7-9.27,8.11,3,47.1-8.16,54.19-20.22-.47-11.49-30.84-30.47-32.59-18.84,6.37-13.16,36.51-29.28,45.52,14.62,29.26-35.62,49.65-31.78,78.59-10.78,1.35-12.28,11.76-20.75,15.34,3.58,5.46,8,10.06,12.22,14.84-6.13,53,13.46,74.62,34.65,110.61,3.88,4.13,14.71,1.09,15.13,8.78,7.63-14.25,18.13-25.78,32.46-33.53-9.46,13.48-17,28.85-26.34,42.45,4.33,8.69,10.24-5.48,17.93-3.28,7.63,12.68-9.41,12.88-8.58,27.16,21.66-5.57,30.74-23.37,47.46-33.76,5.22,21.9-31.14,28.88-35.2,51.62,20.65,11.09,19.83-24.08,41.64-21.67-8.2,8.8-10.7,23.14-20.51,30.36,9.57,10.06,14.57-9.34,26.89-6.44-.27,9.63-6.6,13.32-17.79,12.29-4.83,49.39-76.46,27.36-107.5,28.69-41.47,19.49-7.08,51.62,21.67,44.72,3.54,4.38,3.58,7.52.17,12,26.69-6.17,52,16,81,4.75,31.21-12.07,48.41-43.23,61.85-73,3.59,3.39,10.64,3.24,18,2.73.16-14.52-15.59,1.6-18.07-5.74-1.63-11.44,10.47-9.56,14.76-15.23-17.59-8.13-.26-47.57-19-65.8,7.24,1.11,6.44-5.59,14.95-3.24-4.17-12.67-15,2.9-23.94,3.36-16-7.89-17.8-30.43-21.75-50.73-12.61,20.62-34.4-16-39.46-32.44,15,3.79,15.8-3.54,29.87-6.46-10.56-9.12-24.51,3.66-39,.58-1.44-15.8-20.48-13.42-15.53-35.82,23.61-8.43,49.29,2.95,71.83-7.1-16.58-10.13-40.16,8.2-69-1.94,6.19-22.6,5.28-52.09,20-66.39,7.66,2.07,22.29,16.1,9.32,20.89,31.21,53.28,130.79,40.09,160,72.66,31.83-14.65,54.32,22,92.94,1.6-.68,21.24-18.09,11.81-26.64,21.42,3.1,8.89,3.59,18.34.33,21,9.09,10.23,16.52,6.9,24.2,14.66-7.71,17.56-35,30.56-47.45,33.75,1.32,13.14-9.36,14.58-17.71,18.29-16,36.76-36.3,69.28-88.86,70.45-1.58,17,8.75,19.07,6.44,30l-24,.36c6.73,9.33,38.48-7.19,33.2,14.52-21.07.47-31.52,1.21-44.91,3.68,3.5,10.77,39-4.47,51.06,5.23-11.42,17.71-40.92,3.24-53.82,9.83,14.6,14.09,30.9-.69,54,2.18-4.72,18.12-38.62,7.82-53.71,15.84,10,13,31.33.82,48,2.28-4.21,18.6-39.32,7.11-53.71,15.83,11.26,4.41,34.3-.52,45,2.32-7.64,18.21-49,3.65-62.71,16,8.73,5.39,26.09-6.12,41.93-3.64-6.42,19.4-49.68,3-62.7,16,11.67,6.51,19-5.32,39-.59-9.17,11.28-33.46,4.69-41.83,9.66,7.43,7.51,18.64,2,24.06,5.65-8,8.38-11,6.32-11.7,18.19-17.91-2.66-17.28,3.87-17.8,12.28-41,11.47-96.57,8.73-131.51,26.05-5.27,55.11-47.81,99.41-94,124.59,2.51,7.89,14-6.94,15.06,5.77-14.88,12-41.09,8.52-56.84,6.88,4.29,5.74,14.32,5.54,15.21,14.78,2-9.08,17.4-11.79,21-.31,9.18-7.86,11.91-8.57,26.89-6.42-4.55,17.75-39.76,6.09-47.77,12.73,9.93,13.76,39.06-6,57.06,8.16-1.41,16.44-6.33,23.42-2.39,39.09-8,6-26.16,2.17-38.92,3.59,5.78,13.7,18.76,4.64,33.07,5.53,4.32,19.68-26.79,11.55-35.83,9.54-.76,14,20.8,4.93,27.16,11.62-5.93,16.93-20.17,12.15-35.88,6.54-.43,12.66,19.47,4.29,24.15,11.66-6,5.12-20.19,30.15-26.75,15.41-3.63,32-56.39,39.11-92.17,49.47-2.23-2.76-5.51-4.47-9.07-5.86-3.11-30.64,19.81-36,26.09-57.47,5.43,9.33-8.92,24.76-8.39,39.18,45.94,12.37,79.32-59,58.25-112.05,4,2.94,9.11,4.81,12.11,8.83,5.21-2.83,10.32-5.75,8.77-15.15,1.15-8.45-11.06,7.7-12-2.81-9.08-8.53,13.66-1.18,2.76-15.07-12.37-.36-8.75,10.28-11.79,12.2-9.31-.55-9.51-10.51-12.26-17.84,8.63-5.93,14.82-3,20.88-6.34-2.36-2.62-3.33-6.73-3.18-11.95-14.33-2.1-13.14,10.88-26.83,9.42,2,3,6.94,3,6.12,8.9-21.27-15.4-43.77,13.29-53.88,3.83-6.16.92-2.66,11.23-8.82,12.15,5.8,14.35,19.38,20.66,27.48,32.62,1.17,5.09-2.25,5.72-5.91,6.1,11.9,5.25,16.2,26.79,9.63,41.93-6.09-1.83-2.18-14-9.22-14.9-10.13,12.77-22.43,10.36-38.76,12.61-9.69-8.71,15.36-12.39,5.66-21.11-14.62-.29-3.53,10.62-8.76,15.15-7.39.52-14.42.67-18-2.73,4.39,5.23,2.85,6.8-5.9,6.09.87,6.23,13.18.63,15.08,5.77-10.29,5.8-10.79,21.1-23.62,24.41,12.94,9.69,9,19,15.5,32.81-5,.07-10,.13-15,.22,1.36,4.71,9.45,2.41,6.17,11.93-59.54-12.76-98-57.71-91.88-127.8,2-22.36,20.49-47.83,5-66.16-38.94-6.56-77.82-24.9-105.57-43.46-22.39-15-25.77-59.84-61-68.15-88.67,7.5-166.46-2.85-169.05-78.54-2.78-5.25-11.11-4.79-12.17-11.83s.31-11.54,2.77-15.06c-7.37-2.61-17.21-11.81-9.3-20.89C376,1587,370,1566,368.16,1552.8c-7.45-51.85-4.81-118.24,30.74-147.67,2.64-11.68-11.87-12.21-3.31-21-19.79-6.39-34.61.11-51,.77,6.24,6.89,19.06,8.79,27.06,5.63,2.58,11.36-14.12,4-20.88,6.31-1.88,13.12,22.66-1.05,18.2,14.73-15.12.08-28.78,1.62-38.85,6.59,3,6.31,18.16-6.09,18.11,8.74-11.62,4.2-15.57-1.31-23.94,3.38q3.93,6.63,15.1,5.78c-19.17,5-69.68,21.94-93-1.6-2.93-31.46,21-36.78,35.18-51.62-3.22-14.53,4.69-28.77-.54-36-20.57,3.36-9.49,25.7-14.39,39.28-15.79-6.56-34.4-24.75-27.65-44.64,6.68,4.28,6.18,16,15.25,17.79,13.17-15.8,22.66-35.16,47.37-39.76-19.3,32.08-11.74,74.26-37.32,108.71,41.33,6.62,50.41-43.68,58.75-79,7,13.37,11.67-.55,9-.12,17-2.64,63-12.69,75.15,13.87,13.7-13.78-4.48-11.67-21.25-17.7-14.19-5.1-7.33-11.69-27.11-8.62-12.47,2-27.15,5.85-32.83,9.51-6.23-6.77-14.83-11.11-15.36-23.77,8.84-8.92,29.16-7.1,39-.61,15.53-2.65,7-28.76,26.55-27.44,3.1,7.5,2.78,10,.33,21,40.05.14,40-54.56,46.68-84.81,9.6.23,13.29,6.59,12.26,17.82,7.38-.51,14.43-.67,18,2.72,11.84-.31-.88-24.49,14.66-21.23,5.71,48.58,8.82,87.15-7,132.29-30.1,12.15-34.13,49.65-68.06,58.11-3.64,14.93,7.48,14.64,6.41,26.94-28.8-16.4-19.66,42.33-29.12,57.51,14.84,56,56.07,70.29,103.28,88.55.86,13.86-14.12-4.55-11.8,12.19-4.76-12.53-14.7-5.23-27-2.59-4.6-7-1.12-14.72-12.12-8.81,2.35-9.67,2.46-6.26-3.17-12-9.9,5.59.46,15.55-11.68,21.22,13.1,16.11,35.85,3.52,48.29,20.3,6.09.82-.76-8.67-3.14-9,8.2-9.25,7.64,16.36,21.15,11.7,2.76-2.24,4.46-5.52,5.87-9.1-4.26-12.62-13.42,8-21.07-5.69,13-9,80.62-27.63,98.7-13.52.14.11-3.72,5.86-2.89,6.05,7.9,1.86,23.37-1.12,27-.42,15.93-49.3-56.32-52-82-70.86-4.42,3.61-12.2,3.93-14.85,9.24-83.66,11.7-54.83-94.45-4.5-99.05-13.7-2.4-48-1.53-63-5.06,20-10.3,56.71,3.72,74.73-13.14,3.57-15.9-20.3-3.43-24.16-11.65,1-9.86,14.57-7.56,23.84-9.38-5.52-11.45-42-19-48-2.27-4-2,1.36-8-3.23-15,12.76-1.39,30.91,2.46,38.93-3.6-.83-12.37-14.92-11-18.31-20.73,14.64-.58,31.6,1.13,41.93-3.63,1.79-13.07-15.19-6.7-12.31-20.85,11.3-3.2,16.82,3.86,35.94-.55-4.24-12.9-21.78-12.05-24.37-26.68,12.28-8.77,19.65,17.83,36.06,5.48-7.13-7.89-18.87-11-21.35-23.71,21.73-4.15,22.09,13.78,33.29,20.52.08-25.54-16.22-60.52-19.39-92.84-5,.07-10,.16-15,.22-1.41-8.28,11.14-3,11.85-9.18-1.64-10.26-22.22-4.12-20.88,6.33,7.4,8.62,16.87,15.1,24.35,23.65,2.6,8.44-4.13,7.86-2.77,15.06-33.38-7.3-22.46-54.68-46.15-77.4-1.37-6.26,1.93-8,2.81-12.07-12.16-8.78-9.91-32.46-18.66-44.78-3.29,6.68-13.11,7-20.87,9.35,2.38,7.73,3.5,13.79-2.68,21-14.93-3-14.39-12.11-12.38-26.84-6.91-8.12-18.17-11.73-27.24-17.61-1.34-7.21,5.36-6.62,2.76-15.06-17.78-4.14-21.41,16-47.72,15.76-1.75-1.81-7.23-14.15-.23-15-14-22.89-55.08,12.67-65.93,1-4.71,8.26-8,17.85-20.69,18.34-8.55-6.85-1.91-13.58-15.28-17.79,5-53-57.07-31.2-72.47-34.93-13.58,7.54,6,23.74,6.54,36,34.1,7.93,63.06,35.88,81.7,49.82,11.94,2.74,1-16.82,11.76-15.19,11.51,1.43,16.44,11.46,12.3,20.83,15.39-3.9,29.58,17.52,45-.68,23.12,31,57.67,50.22,64.44,98.16-11.91,6.83-35.28-13.77-35.77,12.56-13.77,1-15.33-10.62-24.22-14.65-54.34,18-94.58,35.64-109.47,94.78-4.16-45.29-13.15-84.93-49.42-95.4,5.29-18.06,20.87-48.65,53.36-39.87,6.7,8.35,12.25,17.88,27.25,17.63,7.88-3.68,9.27-2.75,5.81-12.1,9-.16,18-.29,27-.43,2,27.6-39.79,11.25-56.78,12.89,26,13.68,78.83,7.29,102.06,7.48-13.35-8.81-30,.62-39.1-8.43-4.48-16.16,16-8.12,20.75-15.33-18.76-8.09-56,3-75-4.87,10.69-19.34,19-26.88,11.16-54.25-1.06-11.1-22.64-1-21.2-14.69-18.8,2.6.5,24-17.57,27.3-2.64-6.23,6.47-22.07,2.4-39.09-22.41-4-21.39,23.66-38.73,15.6,1.3,18-37,26.43-32.24,48.56,17.87-11.22,39.38-18.91,65.61-22-5.47,10.45-10.57,21.28-11.45,36.21-8.28,4.76-22.4,3.87-26.79,12.42-6.49.61-1.51-10.61-3.23-15-19.32,30.31,4.19,49.57,13.13,74.9-37.28-17.36-39-58-52.42-95.33,5.77-1.29.05-13.75,11.86-9.19-11.51-2.49.14-14.62-6.27-17.93.22-7.68,9.94-6.1,17.9-6.27-4.75-6.31-20.74-1-24.11-8.65-.63-12.45,20.8-3.44,29.85-6.47-3.73-14.12-16.37-2.67-33-5.51.46-10.39,16.43-5.7,23.84-9.37-2.81-6.23-16.93-.8-18.12-8.73,7.93-14.79-19.33-54.15,7.86-75.21-9.63-19.4-29.48-19.54-51.28-20.27,8.78-28,28.15-45.61,40.91-69.71,6.5-.59,1.51,10.64,3.21,15,23.37-9,50.71-2.53,65.85-7-7.32,18.83-69.16,4-83.54,25.31-2.94,4.33,4.9,12.15-2.73,18.05,28.35,20.35,64.61-39.87,107.81-7.65-1.47,15.73-.26,28.74,18.34,23.77.72-7.86-1.28-12.93-9.18-11.88,43.88-3.93,85.73,43.94,129.15,16.07,7.59,5.17,2.18,4.93,6.16,11.91,10-4.11,25.3-3,32.82-9.49-6.76-6.22-13.79,2.77-21.05-5.69a182.72,182.72,0,0,1,17.47-33.31c5-45.42-14.49-53.82-25.29-86.74,24.08,18.37,32.91,72.7,78.7,49.87-2.54-12.63-13.16-16.94-9.56-35.89-17.36-15.82-45.14-29.56-36.92-62.52,31-8.76,8-34.33-.79-51.06-32.91-5.36-28.54,25.5-44.4,36.73-3.68-22.9,22.12-45.77,2-66.13-31.83,13.51-65.42,58.85-40.47,99.74-21.91,52.07,49.26,55.92,43.54,101.48-2.43,19.18-29.68,29.23-44.52,30.73-4.55.43-12.28-1.61-24-2.65C256.21,984.87,223.7,922.29,169.9,934c3.16-9.46,1.81-8.51-6.17-11.92-8.95,2.1,3,6.37.17,12-11.54-6.32-6,6.12-20.95,3.32,4-13.78-4.51-25.46,8.49-33.17-11.15.94-49.23-.5-39.28-20.42C89.67,885.87,82.46,860,57.83,857.56c-14.05-1.42-27.55,14.6-44.9,3.69C1.39,848.11-7.34,810,9,801.22c-14-9.66,1.29-31.38-3.77-51C35.6,683.53,102.43,681,181.1,684.45c24.81,1.09,51.19-4.22,71.78-10.12-14.5-10.63-27.68,4.52-48-2.27,12-8.1,31.91-8.45,50.82-9.8-14.38-8.3-31.39.56-51-5.23,6.88-1.21,2.67-13.18,11.8-12.18-2.63-6.43-13.21-4.65-18.12-8.73-2.6-8.46,4.11-7.84,2.78-15.06,90.06.75,88.27-87.8,151.15-113.46-.07-5-.16-10-.22-15,7,.84,11.5-.66,14.95-3.22-2.7-7.42-20.85,1.19-24.08-5.66-.64-6.54,2.3-9.59,8.85-9.16-5.93-4-15.84-3.95-18.16-11.74,5.85-5.15,18.66-3.54,26.89-6.41-6.27-6.74-25.89.31-33.06-5.51.19-7.67,9.94-6.1,17.88-6.27.37-8.51-18.43,2.78-18.07-5.74-.67-10.39,34-10.2,30,2.56,3.53-.54,2.46-5.52,2.87-9.06-8.25-7.74-34.33,2.92-39.09-8.42,2.8-6.17,11.41-6.67,20.89-6.34-1.41-6.68-14.79-1-21.05-2.67-2.13-13.93,7.35-16.55,14.68-21.25-3.83-9.08-10.25,3.41-18,.26-9-5.65,7.27-18.5-9.23-14.87,11-28.09-17.12-27.36-33.52-35.55,15-54,126.78-72.75,202.8-69.17,1.56,9.38-8,8-8.76,15.13-56.79-15.19-110.51,14.29-164.38,32.56-5.66.42-1.95,10-8.86,9.15,18.9,11.13,35.61-11.93,59.72-15.94,57.71-9.6,124.1,6,174,9.38,25.14,22.83,44.05,52.11,67.12,77.09,14.69-18.09,50.16-6.13,54.17,14.19-19-1.92-22-18.09-39.1-8.41,8.71,16.4,18.4,31.82,24.76,50.68,22.88,1.27,39.66,17.68,50.89-3.77-15.38-90.87-87-123.64-158.25-156.8-22.52,12.29-37.21-11-48.14-11.31,8.37-19.93,28.58.21,47.91-3.72,46.69,27,100.09,47.1,133.23,88.09,2.4-1.62,4.83-3.19,8.95-3.13-1.44-27.21-14.72-43.52-10-68.94-64.09-14.13-120.68-36-145.28-90.92,6.43-23.41-2.46-53.29-10.1-71.93-5.63-64.9,81.77-132.41,121-122,10.05-2.87.26-6.73,5.81-12.1C663.95-4.87,678.26,9,713.57,21.46c21.76,7.71,47.26-.31,42.51,35.4-6.11,1-7.91,6.15-11.86,9.19,19.28,45.77-26.36,57.43-25.69,84.5-5.28,2.76-7.48,8.52-17.89,6.3-.39,8.51-5.32,12.59-5.68,21.11.61,2.42,3,2.94,3.08,6,25.48,5,45.71-9.63,74.69-16.14,45.71-10.29,103.22,2.49,143.72-11.21-12.68-35.72-59.22-36.43-49.42-95.38,10.75-2.36,13.51-12.5,17.67-21.3,53.81-26,127.44-27,168.06,12.47,15,14.55,18.07,39.36,33.78,53.56,2.57,10.38-4.28,11.6-2.67,21.08,6.27,16.62,15.45,34.8,12.76,50.87-3,18-23.77,31.46-38.27,45.65-14.32,14-26.27,31.46-44.5,30.7,3.52,32-34.76,23.41-44.31,42.74-1.3,9.47,4.44,11.69,6.26,17.93,5.39.3,6.27-3.78,12-3.19,59.67-87.47,238.73-87.06,335-47.15,16.82,25.68,24.29,78.48,1.59,105.12,7.28,9.86,1.45,32.64.79,51-5,.1-10,.15-15,.23-1.93,8.1,6.3,5.73,9.12,8.88-18.4,19.17-41.44,47.7-65.14,52m-810,1141.89c-6.38,6.62-12.7,13.26-26.81,12.4.09,5,.16,10,.24,15,22.25,2.39,21.1-34.34,41.74-15.65-1.15-8-8-10-15.17-11.77M322,883.59c-6.47-2.46-5-13.1-9.26-17.89-45.22.67-109.68,9.63-129.38-31.08-3.4,6.87,1.74,8.95-8.8,12.14-19.58-16-53-10.52-78-1.83-.75,32.73,28,42.9,48.63,44.35-.83,1.84-7.25,11.66.2,12C185.07,861.84,264,917.91,322,883.59m304.76-263c4.39,2.7,11.2-.12,15,2.78,1.79,1.36,1.45,10.18,3.18,12,3.94,4,14.08,2.35,18.07,5.74,4.56,3.9,3.28,14,9.26,17.89,21.14,13.71,53.91.23,59.8-9.92,8-13.81,5.74-21.11,23.52-30.4,10.92-5.71,22.51-1.93,29.89-6.48,9.26-5.71,4.79-22.55,23.65-21.36,1.7-21,9.25-36.42,29.37-39.53,19.29,33,34.38,70.27,76.17,80,9.76-33.82-31.39-40.53-37-68.52,26.62,6,39.89,25.9,51.68,47.26,27.2,2.41,37.37,22.42,60.39,29.13,22.41-23.08,62-30.42,83.23-46.31,19.73-14.8,27.64-32.34,53.49-30.87,13,.75,25.27,16.33,39.22,17.44,30.59,2.44,57.62-21.38,83.42-34.32-.05-7.08-5.31-8.77-3.27-18,46.68-13.23,82.19,31.23,114.69,52.33,3.83-8.13,17.91-6.27,17.72-18.3-36.51-14.13-52.47-49.51-87.92-64.75-13.29,8.36-40.59,8.45-53.94.82-29.28,11-47.63,32.6-74.23,46.18-.6-13.7-19-3.29-17.94,3.29-14.87-3-24.78-11-33.28-20.53-38.28-24.75-61.89,23.09-83.5,28.32-46.55,11.24-59.06-38.63-63.94-65.13.24,5.17-2.19,7.74-5.87,9.09-20.66-10-19-42.09-24.87-59.68-30.17,2.37-55.11,26.17-86.46,31.35,4.95-1.35-.1,11.19-2.81,12.05-31.68-6.92-49.15-28.53-63.76-53.09C732.93,416.47,701.59,478,730,510.88c-19,11.07-21.09,38.66-44.25,45.75-3.28-14.51,13.15-20.4-3.41-27-5.23,3.74,6.43,26.14-2.49,33.1-10.58,4.82-2-10.18-9.12-8.87.53,7.43.78,14.54-5.78,15.09-54.67,1.07-108.07-63.26-156.06-12.63-10.25-5.75-34.91-10.57-32.83,9.51,15.49,10.58,24.38-6.76,38.87-6.61,0,3,2.47,3.53,3.09,6,.1,9-5.19,12.69-11.77,15.18-51.47-4.2-69.75-57-118-73.29-43.77,12.68-72.8,39.69-94.8,73.53-.7-2.32-.16-5.93-3.08-6-2.43,9.61,2.77,11.36,6.22,14.94-20.58,15.49-34.48,37.49-71.38,37.13,56.58,58.31,78.37-48.37,140.4-32.18,21.93,5.74,29.31,44.82,30.7,47.59.12.25,17.5,14.21,18.45,29.78-4,5.93-4,15.88-11.73,18.2,17.35,17.66,16.28,54.37,37,68.54,47,28.14,127.67,18.44,131.22-44.06,9.15-5.9,18.63-11.47,23.66-21.38,15.45-8.84,23.5-8.09,41.71-15.65-18.19-58.21-103.51-46.2-138.08-12.93,6.84,2.09,23.3-5.77,21.08,5.68-11.38,3.76-31-.5-35.83,9.58,18.95-2.38,40.08-9.12,54-.84-20.22,6-48.91,3.77-62.73,16,29.86.7,50.94-10.9,71.89-4.1-5.18,8.77-25.49,2.82-29.79,12.46,10.66.19,24.12-2.52,24.12,8.65-22.8.52-43.42,3.17-59.81,9.91-5.56-9.52-17.48-12.43-27.25-17.62,2.78,9.62-9.8,4.28-8.8,12.17,6.66,14.06,31,24.07,27.57,38.64-49.45-19.1-27-83.91-22.9-125.83-13.63-22.54-31.3-40.89-51.82-56.3-18.52-3.87-53.37,3.37-57.29-23.15,22,2.68,28.82-9.47,50.85-6.78,14.26,24.61,22.92,23.32,45.67,47.37,6.89,7.27,11.56,17.69,15.31,20.79C484.82,637.79,540,594.14,554,567.64c43.77-1.18,42,34.14,72.75,53m66.72,50c4.11-.19,6.59,1.33,9,2.86,1.28-9.35-8.25-11.15-9-2.86M582.19,251.77q6-.08,12-.18c-1.34-9.8-2.91-19.37-12.3-20.82-4,9.54-.51,10,.31,21m54,2.19c7.15-1.29-1.46,13.7,9.12,8.86.11-9.76,1.27-18.5,5.63-24.11,3.44,9.64,12,14.05,27.15,11.61,10.22-15.6,41.05-39.78,26.07-60.48-7.1,9.53-66.46,10-83.92,1.27C597,179.51,583.67,147,583.11,116.57c12.42-.75,9.92-16,20.72-18.34,6.19,5.15,5.84-2.32,12,2.84,16-28.18,79.79-60.22,98.52-25.54,6.56-6.06,8.86-16.22,20.85-9.32,2.18-12.63,11.53-9.46,5.62-24.12C724.08,32,697.74,31.72,686.51,15.87c-67.95-6.46-113,30.24-154.8,71.43-.7-2.3-2.55-3.44-6-2.9,7.25,20.35-13.94,37.78,1.19,78.09,5.23,8.83,23.39,4.31,24.26,17.66-2.13,9.76-19.27,4.95-20.77,15.33,5.88,5.75,12-3.33,20.95-3.31,4,12.12,17.79,14.13,18.43,29.76-7-.86-11.5.65-14.92,3.22q3.67,14.5,18.23,17.75c9.87-10.6-.75-27.79,17.49-33.31,2,5.57,9.84,21.87,24.35,23.66-.84-15.16-15.05-27.89,2.49-33.09,2.78,13.4,4.94,27.42,12.54,35.87,8.45-.44,12.55-11.5,20.93-3.33-2.7,9.22-14.44,9.63-14.67,21.25M899.88,51.68c11.13,5.81,22.85-2.82,30,2.54,1.66,16.43-22.07,8.13-23.66,21.39,11.27,12.33,19.68,10.76,30.3,20.57.15-4.17-.29-7.7,2.85-9,25.68-11.09,48.05-15.44,65.9-4,10.75,30.36,7.14,67.19-19.77,81.41,9.3,25,31,37.17,45.84,56.39,16.58-5.56,21.4-22.58,35.5-30.59C1089.8,94,1033.95,32.86,947.5,29.93c-3.05,15.19-34.22,9.2-47.62,21.75M888,60.86c-.35,10.53,10.66,9.3,15.18,14.8,0-7.08-5.28-8.76-3.26-18-5.21-.17-9.31.8-11.92,3.18M681.57,85q10-2.13,11.79-12.21-11.42.72-11.79,12.21m39,2.42c3.66-10.2-15.39-12.21-18.08-5.75,3.91,4.11,14.19,1.62,18.08,5.75M882.5,91c9.42,18.81,23.25,10.35,48.08,8.28-8.23-2.66-12.93-9-21.16-11.69C911,99,886.09,93.63,882.5,91M664,112.34c-1.32,9.52,5.57,10.53,3.31,21-5,.1-10,.15-15,.24-2.54,13.81,6.56,15.57,18.2,14.74-3.08-16.79,10.09-17.81,11.53-30.22,4.11.06,6.57-1.52,9-3.13,4.11,10.7,0,11,3.31,21C673.52,130,670.58,160.83,688.7,160c-.88-8.08,6.51-28.42,17.75-15.28,6.26-11.58-2.54-17.62-6.41-26.94,7.45-.58,9.35,4.57,15.07,5.77-2.31-9.14,5-8.9,2.72-18.05-4.46-1.5-7.63-4.33-12.09-5.83-6.55,4.43,3.9,7.27-2.84,9.06-5.19-2.78-6.19-9.89-12.18-11.83-13.73,6.2-1.24,10.39-26.74,15.41m-26.88,6.41c4.73.23,10.37-.53,9.07,5.88,10.21.06,11-9,14.76-15.22-2.33-.64-5.91,0-6-2.94-8.13,2-14,6.18-17.81,12.29m-20.89,6.33q-.72-11.46-12.16-11.83c-.35,8.49,8.58,7.4,12.16,11.83m3,0c9,12.15,11.66,28.95,18.51,35.77,9.73-8.56,7.64-22.47,8.53-30.18-11.46-4.23-.38,13.44-11.85,9.21-4.49-6.55,0-22.42-9.35-23.91.23,5.17-2.19,7.74-5.85,9.11m320.84,7.14c1.82-6.12,14-2.2,14.86-9.23-3.39-.59-4.72-3.27-6.11-5.91,2.32-.71,5.92-.18,6-3.1-12.42,1-11.74-3.78-21,.31-.35,7.45,4.86,9.23,6.23,14.92-1.68,0-3.38,2.49,0,3m-341.79-3.82c-15.33-7.94-11,10.66,0,0m57.6,41.21c-1.42-5.67,3.79-18.18-6.22-14.95-3.08,2.88-2.51,15.5,6.22,14.95m21,2.65c3.77-9.33-8.76-16.9-12.13-8.82,5.81,1.13.47,13.74,12.13,8.82m266.63-10.06c10.24,9,8.92-11.25,0,0m.22,15c-3.64,15,7.48,14.65,6.41,26.95,11.88,4.63.85-13,8.81-12.16,4.5.45,11-1.23,12,2.82-4.12,5.85-7.74,12.21-8.68,21.16,4.66,5.36,10.93,9,9.31,20.88,25.58-1.24,34.45-2.87,50.81-9.78-16.46-17.85-40.11-40.12-45.87-59.4-10.57,3.52-19.26,8.91-32.83,9.52m-32.31,42.54c-6.9-12.83,8.58-26.26,17.48-33.29-.07-3,2.37-3.63,2.9-6.07-8.21-17.73-32.84,6.56-45.09-8.32-21.88,18.23-61.76.18-89.87,4.37-28.45,4.23-51.8,24-74.5,28.18-2.67,17.12-18.06,21.89-17.34,42.32-40,6.26-33.81,52.11-25.7,84.51-12.89-50.08,61.74-51,95.08-55.53-10.95,18.93-42.43,17.92-62.53,28,7.61,46.89,52-18.15,75.06,7.88C784,260,834.41,249.61,863.75,238.47c5-18.46-18.22-23.72-9.54-35.89,11.95,1.88,7.44,20.78,21.29,20.7,5.94-5.09,13.82-8.27,14.72-18.27-5.1-4.88-17.62-2.1-15.2-14.78,14.32-5.9,26,31.54,36.41,29.48m20.89-6.31c4.29.66,5.13,4.87,9.06,5.87,4-9.76,8.49-15.84-6.26-17.92.76,5.66-3.26,6.67-2.8,12.05M893.49,223c-4,6.94-14.84,7.29-17.75,15.3,11.67,6.58,13.79-3.76,26.92-3.41-1.44-7.65-4.41-13.74-9.26-17.89,0,2,.07,4,.1,6m18.18,11.74c9.53.32,13.27,6.61,24.05,5.65,0-13.21-7.44-18.73-15.34-23.8,1.78,10.61-10.5,7.55-8.71,18.15m30.07,5.56c7-1.07,11.15-4.92,20.91-3.33-.34-8.8-7-11-12.21-14.84,2.79,11.59-13,5.12-8.7,18.17m-329.5,17c.64-11.83-1.46-20.86-9.35-23.91-6.68,8.46-.3,22.92,9.35,23.91m12-.18c17,2.33,4.21-21.17-3.13-9,3.5.46,3.31,4.68,3.13,9m266.82,1.94c3-.05,3.61,2.39,6,2.92-.06-3,2.38-3.63,2.92-6.06-3,.06-3.61-2.37-6.06-2.92.06,3-2.36,3.63-2.89,6.06m94.76,121.74c-15.73,17.24-21.41,44.27-35,63.6,10.85-1.84,12.78-3.31,29.93-3.44,22.14,33,70.83-2.27,92.9-1.41-6.14-51.36,36.67-55.1,70.92-67.18,1-11.18-12.27-7.68-9.33-20.89,41.48-36.92,113.73-53.5,176-53.76-7.73-.61,4-5.22-.18-12-26.48-20.14-61.17-17.65-93.31-25.62-8.66-2.13-16.23-10.12-24.16-11.64-35.23-6.75-90.63,17-125.5,25.94-28.25,7.21-39.68,19.4-62.66,19,5.28,20.22-22.75,42.69-32.23,48.56,8.65,13.51,3.4,24.29,12.57,38.87M858.23,268.6c5.24-1.81,17.65,3.37,17.93-3.29-2.36-.61-3.52-2.46-3.09-6-5.18,2.84-16.09.16-14.83,9.24m90,4.65c8.63-5.08-8.36-14.62-9.13-8.88,5.66.24,2.24,9.9,9.13,8.88M829.48,350.16c0-1.68-2.48-3.39-3,0,3.38.58,4.72,3.27,6.08,5.93-26.17-5.5-45.07-18.51-51.62-44.29-16.31-1.06-18.72,11.4-23.66,21.39,15.73,9.22,40.36,25.37,39.58,41.46-8,.12-16,.23-24,.37-.62,8-12.47,11.61-5.71,18.1,20.1,3.79,23.17-9,35.76-12.56,5,23.26,6.38,44.83,16.1,71.84,13.55-9.5,12.95-32.77,20.23-48.35-.66-8.46-14.29-3.53-12.2-14.84,15.78,1,19.11,14.83,36.18,14.48,0-17.36-32.24-17.44-21.53-35.72,14.72,4.11,18,20,36.28,20.46,9.25-14.18-17.34-13.48-15.44-29.81,12.64,2.23,14.18,15.86,27.26,17.61,3.61-17.2-12.13-26.39-6.54-35.94,7.08.8,5.72,10.34,15.12,8.78,3.44-15-5-23.14,5.55-30.13,7.54,5.42,17.82,8,18.29,20.76-5.62,5.71-7.51.43-15,.23-3.46,16.79,6.66,19.54,12.41,26.83-2.48-15.25,6.14-19.69,14.61-24.25-9.21-4.82-17.06-27-9.58-38.92,16.59.33.21,15.87,15.25,17.8.07-4.14-1.51-6.57-3.14-9,7.82,3.1,11.31,10.67,21.17,11.68,15.23-43.5-61.82-55.59-87.51-37.7,4.07,25.74-23.75,58.82-41,63.71M700.42,340.1c18.07-8.55,5.31-37-9.57-38.91,3.56,12.27-4.17,31.51,9.57,38.91m605.11-27.24c7.44.34,14.54.37,14.88-6.23-5.65,1.41-18.11-3.8-14.88,6.23M337.86,348.61C374.68,340,417,336.8,451.41,325.86c-46.3,5-88.79,1.64-113.54,22.75m596.51-.05c.05,3-2.37,3.62-2.91,6.05,4.71-.37,10.4.23,8.9-6.14l-6,.09m15,2.77c4-9.22,4.75-25.16-6.42-26.93-5.28,4.1-9,17.5-2.63,24.07,4.12-.21,6.61,1.31,9,2.86m-464.74-7.94c2,0,4-.08,6-.09.1-3.84,3.79-4.22,2.86-9.06l-9,.13c0,3,.08,6,.14,9m245.64-9.75c-1.12,7.24,5.57,6.44,3.22,15,9.46-.67,17.85-2.39,17.81-12.28-2.35-.64-3.51-2.46-3.1-6-7.39-.29-14.44-.25-17.93,3.27m500.52-4.6c-.88,4.06-4.18,5.79-2.81,12,15.48,2.7,25.06,1.37,35.88-6.54-1.9-5.17-14.22.45-15.08-5.77-.71-2.33-.17-5.94-3.08-6-5.24,8.06-4.51,18.11-14.9,6.26m-725.14,17c-1-6.91,8.61-3.46,8.85-9.14-7.65-3.07-17,6.59-8.85,9.14M749,378.41c-10.66-.18-11.05-10.93-24.11-8.63-1.72,7.19,4.1,21.74-2.62,24.07-21.38-12.51-26.95-41.33-42.89-59.44.26,43.45,47.42,93.8,69.62,44m524-41c3.9-4.8,15.17,8.56,24.11,8.65,5.4-13.71-12-3.88-9.22-14.87,9.4-1.67,12.36,6.89,14.93-3.26-14.7-.37-36-4.06-29.81,9.48m-797.3,3.11C438.11,341,407,346.13,374,357.09c16.93,8.76,45.28-10.63,59.9-3.92-3.63,13.27-28.85,5.5-32.71,18.52,38.73,2.16,55.79-16.77,95.71-13.45,2.06-8.24-6.06-6-6.19-11.94-14.21,10.28-37.12,10.63-53.79,9.85-1.15-11.87,21.21-12.41,23.94-3.38-3.11-11.88,16.72-1.48,14.8-12.25M706.56,349c.07,10.09,4.37,15.81,9.31,20.88,6-7.25,7.7-20.33-.41-27-.73,4.24-6.53,3.53-8.91,6.16m473.69,4.79c2.5-6.24,20.81-3.49,24-.34-2.79-9.62,7.67-6.37,8.8-12.17-6.46-4-37.95,5.5-32.79,12.51m36,2.46c3.52,2.46,8.1,3.85,15,2.76.45-8.6.13-16.39-9.23-14.88-1.48,4.48-4.31,7.67-5.81,12.12m59.84-6.9c-3.51-2.48-8.09-3.87-15-2.81-1.56,12.21,12.47,9.35,15,2.81m-524.3,17c8.1-2.28-1.93,14.21,6.18,11.91-.16-7.26,17.09-12.64,5.67-21.11,1.41,8.27-11.14,3-11.85,9.19m-401.58,6.11c5.3-.77,15.06,2.81,11.9-6.2-6.84-.72-11.27.91-11.9,6.2m890.16-7.52c10.62,1.44,15.4-2.8,17.84-9.3-4.06-.87-5.78-4.19-12-2.82-1.51,4.47-4.33,7.66-5.82,12.13m-818,21.43c20,.29,54.66-9.65,74.64-19.14-29.43,2-61.57,1.28-74.64,19.14m506.33-16.71c13.05,2.71,9.72,19.61,27.34,23.62,7.84-9-11.26-8.64-6.35-23.94-8,.14-6.65-9.37-15.13-8.76-.64,4.28-4.86,5.15-5.85,9.08m350.64-5.32c8.81,4.27,8.54-13.56-.14-9,0,3,.09,6,.14,9m-944,17.36c-1.3-7.19,13.68,1.45,8.85-9.14-5.86-1.34-15.19,8.3-8.85,9.14m215.74-6.29c4.46-9.15-15.63-7.65-15.05-2.76,7.21-1.34,6.62,5.39,15.05,2.76M1171.48,369c6-6.13,5.9,1.25,12,2.81-.5-5.57-2.13-10-6.18-11.9,2.7,6.12-15.16,6.21-5.87,9.08m-803,24.23c.88-4.08,4.18-5.8,2.82-12.05-12.77,9.16-23-13.32-26.88,6.42,12.59-8.1,11.36,5.94,24.07,5.63m824-24.53c0,2,.08,4,.1,6,7.44,4.57,8.66-10.34,2.86-9.07-.13,1.84-.39,3.57-3,3.06M431.53,398.25c27.21,10.58,63.27-13.21,101.76-10.54-25.28-14.78-72.21,2.92-101.76,10.54m467.33-19.11c2.35.62,3.53,2.46,3.09,6,15.43,1.07,7.81-6.45,11.8-12.18q-11.17-.52-14.9,6.22m311.78,1.26c4.62,4.55,20.62,5,17.87-6.29-6.87-6.73-13.13,2.25-17.87,6.29m95.85-4.46c-5.61,1.11-22-6.64-15,.23,5.31-1.87,12.58,8.62,15-.23m-155.68,14.38c0-5,8.29-1.81,8.91-6.15-6.14-2.48-16.44,5-8.91,6.15m117.07,10.24c-1.38-6.72-6.56-9.47-9.22-14.89-.56,3.65-3.29,1.91-6,.1,8.35,12.82-5.24,9.51-5.66,21.13,10.12,12,33.2-12.31,36,2.45,9.77-2.35,13-11,17.71-18.31-3-3-6-6-9.12-8.86-8,6-11.4,16.54-23.72,18.38M452.78,416c27,1.84,67.75-15.31,89.63-19.38-35.81,7-74.13-4-89.63,19.38m737-26.22c-11.49-8.14-13,11.22,0,0M932.2,402.66c9.59,1.65,9.19-5.77,15-.23-.52-3.54.37-8.54-3.14-9-.71,6.2-13.27.93-11.85,9.2M1220,404.27c4.37-16.68-15-8.84-21.21-14.66-.46,12.23,13.86,20,21.21,14.66m-860.2,7.09c5.66-.76,6.67,3.3,12,2.84-.19-4.13,1.3-6.62,2.85-9.07-5.31,1.75-12.42,1.73-14.89,6.23m215.73-6.27c-9.14,2.31-8.9-5.06-18-2.73-4.06,9.64,18,7.32,18,2.73M395.8,413.82c3-.05,3.61,2.37,6,2.91-.36-4.71.24-10.41-6.12-8.9,0,2,0,4,.08,6m341.74.8c5.13,2.84,27.78,2.91,26.82-9.42-9.56-4-23-.31-26.82,9.42m-203.79,3.11c-1-5.89,4-6,5.86-9.09-11.33-2.13-14.27,3.88-23.93,3.35-.2-1.83-.51-3.54-3-2.95-3,18.75,14.78-1.68,21.11,8.68m-116.84,4.79c4.06,3.85,9.07,1.72,12-3.19-4-3.83-11.21-3.79-12,3.19M462,427.83c15.41,5.44,36.57-2,47.83-9.74-12.83-4.52-38.63,1.17-47.83,9.74m12.31,20.85c44.06-4.51,67.17-29.4,119.5-25.85-41.14-15-95.81,12.78-128.63,17,3.11,2.88,6.15,5.84,9.13,8.87m643.87-39.84c-2.88,9.09,6.77,5.22,12.07,5.82,0-3-.09-6-.14-9-5.21-.17-9.3.8-11.94,3.18m42-.64c-5,.07-10,.15-15,.25-4.43,9.29,19.71,8.89,15-.25m21.21,14.7c11.48,2.29,11.53-6.57,14.8-12.25-5.66.76-6.66-3.27-12-2.81-1.6,6.26-8.42,9.82-2.77,15.06M372.15,435.21c4.33-1.71,15.54,3.27,14.94-3.24-4.95,0-1.81-8.29-6.13-8.93-1.13,5.82-13.71.48-8.81,12.17M911.53,424q11.19.5,14.91-6.23-11.17-.5-14.91,6.23M396.12,434.83c5.09,8.35,22.49-3.08,14.9-6.23-.64,4.66-11.18-1.6-14.9,6.23m824.15-12.53,6-.09c0-2-.05-4-.08-6-2,0-4,0-6,.1,0,2,.06,4,.08,6m15,2.78c-1.31-7.18,13.67,1.46,8.85-9.16-5.19-.67-17.66,5.93-8.85,9.16m-128.91-1c-.5,8.92,10.85,10.43,15.08,5.77.24-12.07-7.81-7.83-15.08-5.77M438.15,440.21c-3.82-.09-4.18-3.79-9-2.86-4.54,7.45,10.32,8.68,9,2.86m42.24,17.39c26.89,4.06,58.86-11.56,80.6-22.25-26.81,7.48-64.46,4.4-80.6,22.25M588.1,443.94c7.09-7.31-9.95-7.63-9-2.86,0-.21,10.15,1.7,9,2.86m569.41-8.66c-2.06,11.47,19.52,6.2,15-3.22-7-.85-11.5.65-15,3.22m128.91,1c4.49-9.15-15.63-7.66-15-2.78,7.22-1.33,6.61,5.4,15,2.78M390.41,453c4.65-8.45-13.08-8.11-12.06-2.81,4.07.86,5.81,4.17,12.06,2.81m737.26-8.21c7.44.33,14.54.34,14.89-6.23-4.56-4.71-12.63.28-14.89,6.23M399.42,455.83c5.24-.31,9.34.52,12,2.81,0-3-.09-6-.13-9-6.84-.73-11.25.89-11.91,6.18m51,2.24c7.86.72,12.88-1.31,11.86-9.2-7.85-.74-12.9,1.29-11.86,9.2m776.2-11.83c4,0,8-.12,12-.18,2.18-11.6-14.53-11.36-12,.18m30,2.57c6.85.74,11.25-.9,11.88-6.2-4.27-.66-5.12-4.87-9.06-5.87-.88,4.07-4.18,5.8-2.82,12.07m-755,23.5c26.82-8.46,58.23-12.45,83.6-22.3-33.36,2.1-67.24,3.68-83.6,22.3m605.14-24.23c4.07.88,5.8,4.2,12,2.81,0-3-.1-6-.14-9-6.83-.75-11.25.88-11.89,6.18M435.49,461.29l6-.09c4.54-7.47-10.32-8.7-9-2.88,1.82.15,3.55.39,3,3m638.34-9.72c5.29-.77,15.06,2.81,11.89-6.19-5.58.5-10,2.16-11.89,6.19m123.24,22.17c11.56-2.78,10.77,7.17,18.12,8.74-2.33-15.91,9.61-33.86-6.59-39-5.31,8.64-15.54,12.5-11.53,30.21m92.52-25.43,6-.11c4.56-7.45-10.32-8.68-9-2.85,1.83.13,3.56.39,3,3M510.77,484.17c7.32,5.88,14.45-5.47,21,2.67-7.63.47-15.42.8-14.84,9.25,26.77.07,65.13-13.4,89.55-25.4-18-1.34-52.79,16.06-71.74,13.11,12.5-16.44,47.25-11.28,62.56-25-24.85,7.35-66.1,6.73-86.56,25.35m-117-7.22q2.5-11.76-9.13-8.87c-1.92,8.09,6.29,5.69,9.13,8.87M1224,470.32c8.76-.34,16.86-1.33,14.79-12.23-6.26,2.78-17.88.37-14.79,12.23m-812.21,9.35c4.71-.36,10.4.23,8.89-6.14l-6,.08c0,3-2.39,3.62-2.91,6.06m24.08,5.64c10.24,2.09,11.5-11.66,2.81-12.06.75,5.68-3.29,6.68-2.81,12.06m29.87-6.46c3-.05,3.6,2.37,6,2.92-.38-4.73.24-10.43-6.16-8.93,0,2,.08,4,.11,6M1110.06,469c5.3-.77,15,2.8,11.89-6.19-6.84-.74-11.25.88-11.89,6.19m149.85-2.27c2,0,4-.07,6-.08q0-3-.07-6c-2,0-4,.07-6,.08,0,2,.07,4,.1,6m-122.73,10.88c9.63,2.47,9.29-4.76,11.85-9.19-4.08-.88-5.79-4.2-12-2.83,0,4,.11,8,.17,12m41.91-3.65c2,0,4,0,6-.09.11-3.84,3.79-4.22,2.85-9l-6,.09c-.12,3.84-3.79,4.21-2.86,9m-554.43,8.43c2,0,4-.05,6-.08,4.53-7.46-10.31-8.68-9-2.86,1.84.15,3.56.39,3,2.95m344.6-8.24c-11.51-8.13-13,11.23,0,0m9,2.86,12-.17c0-2-.07-4-.09-6-4,.05-8,.1-12,.19,0,2,.07,4,.08,6m66,5c8.44-2.62,7.84,4.11,15,2.78,3.44-15.64-10.64-8.38-12.18-11.83-.19-1.84-.49-3.57-3-3,.06,4,.12,8,.17,12m39.07,5.41c5.29-.77,15,2.81,11.88-6.2-1.31-6.76-17.54,1.86-12.16-11.83l-12,.19c.58,4.5-.91,11.1,3.17,12,1.11-7.47,13.69-2.5,9.1,5.88m77.79-10.2c10.86,21.45-4.61-9,0,0M532,501.88c14.62,17.91,51-5.93,74.83-7.16-12.28-18.16-46.49,12.1-74.83,7.16m434.41-15.63c3,0,6-.1,9-.12,0-2-.06-4-.09-6l-9,.14c0,2,.06,4,.1,6M445.12,503.2c4.65-4.55,3.13-13.47-6.18-11.91-.74,6.87.89,11.28,6.18,11.91M460,494c0,2,.05,4,.09,6,1.83.14,3.56.4,3,3l6-.1c.14-1.84.39-3.57,2.94-3,0-2-.05-4-.07-6-1.84-.13-3.58-.39-3.06-3-2,0-4,.08-6,.1-.14,1.83-.4,3.55-3,3.05m171,9.41c6.17-6.07-.09-12.82-6.22-14.92-.33,7.46-.34,14.58,6.22,14.92m377.63-5.74c6.83-6.19,13.39,1.87,23.91-3.38,2.06-8.22-6.06-6-6.16-11.91-7.11,2.16-22.21,11.72-17.75,15.29M984.7,504c7.85.72,12.86-1.3,11.86-9.19-9.4,3.57-7.36-4.61-12.08-5.83Zm-569.51,2.66c2,0,4-.05,6-.1,0-2,0-4-.07-6l-6,.1c0,2,.08,4,.09,6m629.53,2.44c8.51,2.34,7.7-4.37,14.93-3.24,2.05-8.23-6-6-6.17-11.9-5.18,2.84-16.1.11-14.85,9.21,11.08-1.71,7.47-5.22,6.08,5.93m77.79-10.2c5.88-1,6,4,9.08,5.87.23-5.66,9.87-2.21,8.85-9.14-9.93-.32-13.1-6-17.93,3.27m41.95-.64c4.71-.36,10.41.25,8.91-6.12-2,0-4,0-6,.07.06,3-2.36,3.63-2.9,6.05m-590.24,18c4,3.91,15.87.39,17.89-6.28-7.93.15-17.68-1.4-17.89,6.28m-65.89,4c7.52.27,9.47,5.59,11.94-3.19-4-3.83-11.21-3.78-11.94,3.19m81.1,10.79c14.94,14.46,48.19,17.2,56.83-6.88-.38,7.51,4.76,9.33,9.18,11.87-3.55-12.32-6.82-11.16-.31-21-17.68,1.81-52.21,1.56-65.7,16m74.83-7.17c6-2.72.55-15.25-3.09-5.95,1.82.16,3.55.4,3,3-1.66,0-3.35,2.47.05,3m9-.1c4.46-.94,21.59-4.21,11.83-9.19,1.08,7.93-16.82-2.57-11.83,9.19m344.68-2.27c7.44.34,14.55.34,14.88-6.23-7.12-1.64-14-4.39-14.88,6.23m140.89.86c7-1.11,12.86-3.27,14.85-9.22-3.85-.12-4.21-3.81-9-2.9,2.3,8.18-5.87,6.15-5.82,12.12M994,524.89c3,0,6-.08,9-.14,0-3-.08-6-.14-9-3,0-6,.11-9,.15,0,3,.1,6,.14,9m-317.63,7.83c-2.59-2.53-8.51,2.31-8.95,3.14-2.76,5.31,11.06-1.1,8.95-3.14m320.71-1.88c-.05,4.15,1.51,6.57,3.12,9,5.69.58,6.58-3.47,11.95-3.16.52-9-10.84-10.44-15.07-5.8m-353.36,23.4c-12.27-10.37-6.92,9.76,0,0M1321.3,562c-44.35-1.65-63.77,0-98.76,10.52-1.62,11.49-9.73,28.28-17.61,24.31,2.63,26.52,24,101.16-10.43,102.29,6.07-19.27,12.8-39.43,2.07-60.12-39.82,12.63-90.3-1.13-128.62,17-.23,12.61-9.49,16.44-14.62,24.25,18.94,26.49,68.18-12.76,102.12,13.46,5.44-3.58,1.83-16,14.8-12.24,6.63,2.29,12,5.85,12.2,14.85-3.76,5.2-6,11.9-14.79,12.23-20.9-6.07-64.43-26.44-84-4.74-.6,14.41,18.07,20.7,36.29,20.49,10,19.49,55,16.57,75,7.86,36-30.09,28.48-102.5,70-127.23,29.41-12.88,67.42-1.43,84.2,16.74,53.08,6.23,62.06-30.42,83.08-55.31-25.6-11.23-50.19,22.15-77.51,28.19-13.6-8.31-21.28-22.74-33.47-32.54M830.09,587.47l12-.2c0-2-.05-4-.1-6l-12,.19c0,2,.06,4,.08,6m284.67-7.33c-.09-3-5.32-3.72-6,.07,12.23,8.32,36.91-2.85,6-.07m27.18,14.59c11.65-1.62,45.1,2.54,41.91-3.65l-53.94.83c-5.44-5-18.4-.5-20.87,6.32,17.87-1,17.44-1.26,32.9-3.5m-326.55,11c11,5.42,26.14,6,35.91-3.54-6.7-2.24-11.78-6.14-21.08-5.69,4.83,12.56-15.49.72-14.83,9.23M317.94,616.28c13.64-.55,27.92-.48,32.84-9.5-10,4.06-30-1.57-32.84,9.5M1103,595.33c-19.24-3.19-6.44,9.26,0,0m57,5.14c-23.77,2,14.68-1.2,0,0m-92.68,16.42c20.91,1.64,66.62-1.66,74.85-7.15-25.18-1.78-42.67,3.91-65.9,4,.08-5.17-2.42-7.67-6.11-8.92-.89,4.09-4.19,5.8-2.84,12.06m98.77-10.52c-4.47.58-11.09-.91-11.95,3.2,4,3.82,11.22,3.78,11.95-3.2M318.22,634.31c25.38-4.59,41.19-1.11,56.76-12.89-16.05,7.1-47.74-1-56.76,12.89m476.49-7.25c21.37,0,56.42-2.3,62.85-7-13.54,2.16-13.63-1.8-15.09-5.77-10.67,6.58-39.56.29-47.76,12.75m356.58-8.43c-29.61,0,14.57,0,0,0m93.28,22.63c4.13,17.83-7.34,20.47-8.51,33.17,9.56,39-41.35,57.58-52.78,75.89,83.78,7.72,61.18-127.22,129.85-134.13-32.34-12.28-52.76,11.5-68.56,25.07M600,633c5.36,5.47,9.26-.92,11.91-6.2-5.59.51-10,2.13-11.91,6.2m500.48-7.62c7.15-1.93,21.8,3.45,23.92-3.37-9.26-3.38-15.11-2.83-23.92,3.37M342.38,645.95c16.31.09,29.28-3.11,38.81-9.58-18.26,2.13-26.06-.39-38.81,9.58M791.9,639.1c7.51,2.74,17.92-11,18,2.74,14.15-11.63,35.08,1,47.78-12.76-26.2,3.61-46.85-2.78-65.81,10m158.81-5.41c-3.56-.38-6.89-5.24-9,.13,3.55.39,6.88,5.25,9-.13M321.45,649.28l6-.08c4.55-7.48-10.31-8.7-9-2.89,1.83.15,3.56.4,3.05,3m734.36-2.17c14.82-13.21,51.47-5.18,71.75-13.1-26.12.54-68.94-4.4-71.75,13.1m-746.39-.64c-6.18,1.86-19.75-3.43-21,3.32,5.57,5.44,16.85,1.34,21-3.32M939,651.89c2.71-10.95-13-2.85-15.12-8.77-1,9.11,9.87,6.08,15.12,8.77M378.75,672.43c-51.43-41.3-98.5,13-116.06,55.85,0-1.67-2.49-3.38-3,0,1.14,9.46-22.36,31.51-41.63,21.66-1.33-31.54-14.07-32.42-24.81-53.69-23.17-8.91-45.17,6.34-72-4.91-42.44,12.53-86.3,27-103.84,70.68,3.78,29.31-5.89,45.55-11,66.24,7.88-1,2.54,11.62,12.13,8.84,9.68-27.1,38.24-35.81,34.81-75.64,35-12.24,92.88-32.84,122.8-7.88,8.24,24,21.86,42.47,36.87,59.52,27.33,8.57,63.06,6,86.67-16.33-.69,6-10.75,23.61.22,15-.76-2,5.78-12.88,5.73-18.13,34.44-13.85,44.87-51,92.13-52.45-.18-7.06,5-8.93,2.73-18.08-20.73,7.08-39.89-2.57-53.81,9.82.07-4.12-1.52-6.55-3.14-8.95,11.13-11.87,36.58-9.81,53.71-15.84,3.26-14.58,1.87-21.39,2.36-42.1-11-1.8-11.41,6.67-20.89,6.32m8.72-18.15c-5.25,1.81-17.65-3.37-17.95,3.26,5.25-1.81,17.65,3.37,17.95-3.26m257.85,5.09c8.81,4.27,8.55-13.56-.11-9,0,3,.08,6,.11,9m149.76-8.31c14.42,14.56,43.3,3.24,62.93-.94-13.86-5.1-42.15,4.81-62.93.94m86.92-1.3c-17.75-6.31-24.33,10.73,0,0m24.06,5.63c-5,.1-10,.18-15,.25-4.43,9.28,19.71,8.93,15-.25m33.15,11.53c2-10.83,25.57-.78,26.8-12.42-8.65,4-21.22,4.21-30,.47.59,4.47-.9,11.08,3.18,11.95m410.48-12.24c8.63.49,15.2-1,17.88-6.29-7.95.18-17.67-1.4-17.88,6.29M744.5,675.88c.08-5.16-2.42-7.66-6.11-8.92-.11,5.17,2.4,7.66,6.11,8.92m119.85-4.82c2,0,4-.05,6-.08,0-2-.07-4-.07-6l-6,.1c0,2,0,4,.11,6m135.16,19c-6.84-.72-11.25.89-11.87,6.2,7.56-.72,29-3.11,23.87-6.38-7.83,1-12.91-.88-12.12-8.83,13-2.17,23-7.18,32.79-12.52-15.29-3.83-25.17,2-33.07-5.5-24.07,4.29-64,16.31-86.86,4.34-3.75,11.54-22.35-4.55-23.78,12.37,43.59,7.37,69.67,1.56,107.84-4.64-.07,11.18-4.35,9.76,3.22,15m-179.9-3.27c4-10.87,25.64-17.09,38.83-9.6.42-16.14-20.87-.83-36-5.46,5.12,9.35-11,12.45-2.78,15.06m-18-2.72c.38-3.56,5.24-6.89-.13-9-.39,3.57-5.23,6.91.13,9M214.2,692.95c19,2.17-5,16.19,3.35,24,16-4.7,26,3.12,32.83-9.52-11-5.53-18.62,4.38-27-2.58,1.39-3.59,3.08-6.88,5.84-9.11,16.71,1,21,3.21,26.85-9.43-20.44,2.33-26.89-.15-41.86,6.64m647.38-6.83c-3.53.53-8.54-.39-8.95,3.16,13-.13,16.65,5,20.88-6.34-6,.07-3.93-8.13-12.07-5.8,0,3,.1,6,.14,9M660.92,698.19c9.36-.75,22,1.68,26.92-3.41-.21-16.74-27.85-7.59-26.92,3.41m254.82,2.13c24,2.18,26.31-8,14.76-15.24,4.06,13.8-11.61,8.43-14.76,15.24m-36.1-8.47c-4.48,9.14,15.63,7.67,15,2.78-5.34-2.56-8.89-9.41-15-2.78M514.1,703.43c-3.82-.11-4.2-3.79-9-2.87-4.54,7.46,10.32,8.67,9,2.87m-17.92,3.28c-29.62,0,14.55,0,0,0m191.93,6.09c5.65-1.42,18.14,3.81,14.89-6.23-7.45-.34-12.39,1.74-14.89,6.23m33.06,5.51c5.67.57,6.56-3.49,11.95-3.19.44-6.58-2.59-9.52-9.13-8.88-.87,4.09-4.17,5.82-2.81,12.07m-29.37,39.49c-31.36,39.82-92.8,35.72-97.43,97.61-5,7.17-19.2,3.25-11.76,15.2-15,.2-21.76,8.43-29.74,15.46,45.63-2.21,94.83-25.32,134.41-32.08,22.79-63.91,136.59-63.58,179.48-23.75,28.07-9.22,40-34.1,71.33-40.14,52.77,36.72,104.5,90.6,178.2,87.41,1.26,5.15-4.34,7.76.13,9,4.36-13.32,18.35,4.66,23.93-3.35-12.81-23-37.52-47.82-37.1-74.54-37.55-22.27-71.1-87.64-126.6-46.15-8.43-31.27-43.14-65.69-78.57-40.86-23-12.41-47.67-21.75-69.07-8,7.7.2,14.33,1.48,18.09,5.74-28.57,7.4-59.59-1.52-87.05-7.7-5.83,21.3-25.06,14.62-41.63,21.67,10,20.7-16.64,21.15-14.62,24.26,5.3,1.66,17.55-3.9,18,2.73-4.3,9.37-24.56,7.06-30,.47,5.1.6,7.37-3.52-.05-3m299.05-46.61c1.32-9.57,27.1,4.63,23.84-9.37-6,3.18-33.3.94-23.84,9.37M613.56,738c8.76,2.84,25-.1,32.87-6.5-5.33-.6-15,3.25-12.08-5.82,9.16-4.9,30.41,2,29.79-12.47-29.24-6-28,15.68-50.59,24.8m-389.78-6.09c6.48-3.54,19.38-.88,20.84-9.32-9.11,1-20.45-.16-20.84,9.32m788.22-9c11.2-.77,28.54-.6,38.83-9.6-17.87.43-29.33-2.7-38.83,9.6m-347.6,8.3c20.06-1.45,34.94,2.09,41.87-6.63-11.29-5.68-35.86-2.35-41.87,6.63m323.68-4.92c9.48.33,18.08-.18,20.87-6.33-9.46-.34-18.07.17-20.87,6.33M1078,727.9c-24.57-12.18-26.59,4.71,0,0m203.85-.1c4.69-.37,10.38.25,8.88-6.14l-6,.07c0,3-2.38,3.61-2.89,6.07m-27,.41c-.08,4.11,1.5,6.59,3.13,9,7.63-1.45,13.71-4.42,17.83-9.27-9.27,1.15-14.4-6.75-21,.31m63,5.05c8.62.49,15.23-1,17.88-6.28-8.61-.49-15.2,1-17.88,6.28M628.68,746.74c8.32,2.4,27.75,2.59,32.87-6.52-13.43-.23-25.64.72-32.87,6.52m437.59-3.65c7.91-4.15,23-1.29,26.83-9.42-12.08.07-23.09,1.21-26.83,9.42m245.65-9.75c-19.25-3.16-6.44,9.27,0,0m.31,21c.51,5.58,2.13,10,6.18,11.93,7-9,34.87,2.32,41.87-6.64-7.1-5.89-16.8,5.85-24-2.65.19-4.74,7.61-2.47,5.84-9.11-6.8,1-11.25-.54-12.07-5.82,3.52-.5,8.52.4,8.95-3.13-4.32,1.69-15.54-3.27-14.94,3.25,8.23,4.43-7.9,9.79-11.81,12.18m212.65-12.25c1.85,1.7,14.32,6.81,15-.23-8.76,1-11.31-11.86-15,.23M80.47,770.1c15.67,6.4,39.7-2.16,53.87-6.83-19.88.42-38.68,1.88-53.87,6.83m575.45-5.76c8.88-3.21,23.95-.37,26.84-9.42-9.46,2.65-25.2-.81-26.84,9.42m431.5-9.54c5.24-1.83,17.68,3.34,17.94-3.3-4.72-4.86-14-1.07-17.94,3.3m503.44-10.66c-10.83-3.15-37.76-5.62-48,.72,15.34-1.15,28.14,6.54,48-.72M1477,748.85c1,5.88-3.94,6-5.84,9.11,3.52.43,8.49-.65,9,2.86-9.7,2.4-13,11.06-17.69,18.3l9-.15c1.82-.18,3.54-.49,3-3-9.2-12.83,9.42-6,17.84-9.28.79-5.91-4.14-5.9-6.14-8.92,10.73,4.5,1.66-10.23,8.85-9.14,4.2.15,11.46-.86,6-3.13-11.47-1.87-14.26,12.45-23.94,3.38m-853.86,28c7.8-2.29,10-10,17.78-12.3-8.16-8.17-29.22,1.42-17.78,12.3M107.6,778.7c11.08-2,30.91,4.4,32.86-6.52-17,5.36-26.24-4.16-32.86,6.52m464.51-7.08c6,5.46,18.54.64,23.93-3.36-4.87-4.37-18.3-.4-23.93,3.36M80.66,782.12c6.33,5.14,26.89,1.36,17.9-6.28-2,7.65-17.23-7-17.9,6.28M1204.59,771c4.48-.58,11.07.91,11.95-3.19-6.91,1-3.47-8.62-9.14-8.87.31,5.23-.52,9.35-2.81,12.07m-21.07-5.69c10.24,8.94,8.91-11.23,0,0m-1117.61,32c2.33.64,5.93,0,6,2.91-5.54,4.47-19.85.42-23.88,6.37,8.93,8,36.3-2.95,45,5.32-14.28,5.85-40.33.23-47.76,12.75,16.11,1.13,22.79-5.82,33,2.48-16.77,1.47-38.42-1.83-44.83,9.71,21.76-1.54,49.77,3,62.85-7-2.69-1.74-17.19-6.06-9.12-8.89,35.11-5.88,55.55-1,80.92-1.21.31-12.4-13.51-5.44-6.28-17.93-15.21-8.68-45.5-1.78-63.06-8.05,21.44-6.88,46.5,3.67,56.79-9.88-30.87-1.84-64.15-1.74-89.71,13.39m374.65-2.69c3.52,2.46,8.09,3.82,15,2.76-.1-6-.18-12-.27-18-14.83,7.31-22.53-9.17-29.92,3.47,13.34-2.73,28.33,4.77,15.17,11.79m650.14-21.91c14-1.33,26.91,5.66,32.91-3.52-8.54-6.14-26.42-1.59-32.91,3.52m137.86-2.09c2-.05,4-.06,6-.09,4.55-7.48-10.32-8.7-9-2.89,1.82.17,3.55.39,3,3m15,2.76c3.85.11,4.21,3.79,9.05,2.87.08-5.17-2.43-7.68-6.13-8.94.05,3-2.39,3.63-2.93,6.07M176.79,795.67l6-.09c4.53-7.46-10.33-8.67-9-2.86,1.82.15,3.55.38,3,2.95m422.56-6.43c8.26,7.66,21,3.18,26.88-6.4-8.22,2.86-21,1.24-26.88,6.4m593.34-12c-3.58-3.41-10.65-3.24-18-2.73,1,9.95,15.42,9.87,18,2.73m-80.77,10.24c12,1.46,9,1.51,21-.32,0-2-.07-4-.11-6-3,.08-3.6-2.36-6-2.9-.88,7.05-13,3.11-14.84,9.24m45,5.32c8.59-4.66,13.74,4.18,14.85-9.22-11.14,3.38-8.65-7.34-18.08-5.74-1.1,7.24,5.57,6.43,3.23,15m44.87-6.69c11.16-2,27.26.86,29.83-9.46-9.12,4-21.66,4.6-29.83,9.46m236.71-6.59c4.62,4.54,20.61,5,17.88-6.31-7.95.18-17.67-1.37-17.88,6.31m-215.65,12.29c8.47-.64,20.62,2.28,20.89-6.34-5.53,1.75-27.16,2.87-20.89,6.34m198.16,21c13.82-2.06,21.91-5.1,41.86-6.65-1.08-7-3.78-12.36-6.26-17.93-11.42,6.94-11.68-3-21.08-5.69-4,18.44-.66,10.34,6.19,11.91.46,11.45-30.23,7.94-20.71,18.36m65.53-28c-1,12.2,18.72,3,27.06,5.58-2.93-10.29-19.92-7.88-27.06-5.58m-922.94,20c4.66-8.44-13.07-8.1-12-2.82,5.66-.76,6.68,3.3,12,2.82m-95.77,10.47c11.76,2.79,17.3-6.91,24-.37,3.16-9.6-27.41-9.14-24,.37m110.92,1.32c5.4,8.95,18.47-4.58,8.85-9.16-.25,5.69-9.88,2.27-8.85,9.16m542.35-14.25c2.76,10.67,20.17,9.88,21-.32-5.76-5.88-14.17-1.23-21,.32m93,4.6c8.61.49,15.22-1,17.89-6.29-2.42-2.4-18.41-2.87-17.89,6.29m287.62-10.4c-18.26-7-18.93,10.88,0,0m-347.61,8.32c-3.83-.12-4.2-3.8-9-2.87-4.55,7.45,10.32,8.68,9,2.87M527.94,823.38c5.63-1.42,18.11,3.8,14.88-6.23-7.44-.35-12.41,1.74-14.88,6.23m974.12-5.81c12.85,9.21,20.12,2.7,30,2.56,48.7-.74,52.32,49.89,96.52,40.58-24.79-32.63-55.84-71.64-102.67-49.51-.35-4.72.24-10.42-6.13-8.93,7.26,17.92-14,8.06-17.75,15.3m-21,.32c7.61-.5,11.56-4.52,11.81-12.21l-15,.23c-.13,5.24.81,9.33,3.18,12M498,823.83c-5.24,1.81-17.66-3.37-17.93,3.27,3.91,4.06,18,5,17.93-3.27m278.89,7.79c2-6,7.86-8.16,14.85-9.26,18.22,2.06,38.5-4.51,8.94-3.13-16.84.39-35.66-1.15-44.87,6.68,10.73-1.91,14.57,3.27,21.08,5.71m134.82-5.07c16.81-1.43,31.27-5.12,50.9-3.79-12.76-11-41.54-5-50.9,3.79m254.68-6.88c3.53,2.46,8.1,3.84,15,2.77,0-2-.08-4-.1-6-3,.07-3.61-2.38-6-2.92,0,5-8.28,1.81-8.91,6.15m65.9-4c-11.52-8.12-13,11.23,0,0m206.88,2.87c11.14-2.17,17.7,8,17.88-6.28-7.93.17-17.67-1.4-17.88,6.28M195.41,837.45c-1.21,7.64,15.84,11.72,18.07,5.72-8-.61-11.58-12.47-18.07-5.72m39.11,8.41c-.84,12.92,11,8,18.07,5.73-2.28,10.79,6.59,14.82,12.12,8.84-11-12.5,8.24-8-3.31-21,4.36,3.3,7.36,3.15,8.94-3.13-16.13-8.91-15.5,13.81-35.82,9.55M908.63,823.6c-2.6-2.51-8.53,2.32-9,3.13-2.75,5.31,11-1.09,9-3.13m212.86,2.75c9.68-1.42,26,3.58,26.88-6.39-11.46-.31-21.83.48-26.88,6.39M552.08,835c3.54.42,8.5-.65,9,2.85-3,.08-3.69,5.35.08,6,0-5,8.29-1.8,8.91-6.15-3.68-.29-7.13-.78-6.1-5.92-4-.34-21.69-.12-11.94,3.19m177.05,12.31c37.3-5.34,80.09.52,101.7-13.56-13.21,3.49-15-4.86-24.05-5.65-20.18,15.74-64.32,3.63-77.65,19.21M24.77,852.06c18.37-.88,41.68,3,47.81-9.74-13.84,5.26-40.88-2.27-47.81,9.74m410.53-9.25c5.3-.77,15,2.79,11.88-6.18-6.83-.75-11.24.89-11.88,6.18m722.25-11c-5.66.75-6.67-3.31-12-2.84-4.68,8.45,13.07,8.11,12,2.84m-617.27,15.4,6-.1c0-2-.07-4-.09-6l-6,.09c0,2,.06,4,.09,6m386.56-8.9c-22.09,2.11-51.21,1-68.7,16.06,41.55-10.4,71.75-4.35,116.65-16.79-15.72-3.3-31.46-.84-47.95.74m254.87,5.15c8.07-4.12,35.47-4.84,29.79-12.48-3.44,2.86-26.48.91-29.79,12.48M486.38,851c4.33-1.69,15.55,3.28,14.95-3.2-7-.82-13-6.23-14.95,3.2m239.7-6.62c-3.83-.12-4.19-3.79-9-2.87-4.54,7.47,10.3,8.65,9,2.87m497.71,7.44c-1.25-7.42,28.48.45,17.9-6.27-14.78,3-10.31-13.77-24.17-11.65.2,4.11-1.31,6.62-2.84,9,19.53-3.37,3.71,6.17,9.11,8.87M546.54,865.15c-.57-15.74,20.09,6.36,20.85-9.33-12.26,1.48-19.24-2.48-27.06-5.6,1.74,5.32,1.73,12.45,6.21,14.93m266.63-10.07c9.65-.75,22.65,4.41,29.88-6.46-33.85.69-75.72,10-29.88,6.46m317.77,1.17c8.73-3.35,15.34-8.75,29.87-6.47-2.06-12-29.81-2.69-29.87,6.47m-224.73,6.42c24.89,6.54,47.09-2,59.89-3.9,11.67-1.78,32.22,7.73,35.87-6.57-26.47-3-66.54,6.32-95.77,10.47m-467.57,4.11c5.25-1.81,17.67,3.38,17.95-3.27-3.92-4.08-18-4.95-17.95,3.27m236.86,2.42c18,4.93,50.88-9,68.89-4-7.67-16-49.75-2.94-68.89,4m137.9.9c28-5.15,37.86,4.7,56.85-6.87-24.51,3.38-45-7.56-56.85,6.87m89.81-7.38c-15.33-7.94-11,10.65,0,0m-389.54,8.92c-10.24-9-8.92,11.25,0,0m722.3-8c8.62.49,15.22-1,17.87-6.31-7.92.18-17.65-1.39-17.87,6.31M450.92,884.63l27-.42c.23-16.34-19.12-1.69-27,.42m329.61-8c-4.42-8.79-2.19,7,6.06,2.93-1.26-5.15,4.32-7.78-.15-9-.58,3.38-3.24,4.72-5.91,6.07m-242.79.71c-19.25-3.19-6.45,9.28,0,0m117,4.23,6-.11c0-2-.05-4-.09-6l-6,.1c0,2,0,4,.1,6m18-.28c17.27,0,34.41-.1,44.87-6.7-21,2.26-35.38-2.21-44.87,6.7m302.73-1.61c19.65-.59,49.11,7,62.8-10-26.86,3.15-51.64-3.53-62.8,10m183,9.24c8.62.49,15.22-1,17.89-6.28-6.12-2.08-12.37-8.86-6.21-14.93-4.33,1.73-15.54-3.25-14.93,3.25,12.12.61,9,13.4,3.26,18m62.71-16c-24,2.66,36.27,7.67,35.92-3.56-8.8-2.85-24.39.67-35.92,3.56M810.7,888.16c4.38,1.57,15.42-3.74,15,2.78-.33,13.11-14.3-3.35-11.85,9.2,29.2-9.74,43.68-13.4,77.79-10.21-.2-4.13,1.3-6.61,2.84-9-26.07-6.48-60-3.95-83.8,7.28m-134.83,5.06c13.44-9.11,34.35,7.42,41.86-6.62-14-2.21-33.16-5.17-41.86,6.62m236.84,2.41c-.11-4.5,10.94-12.45,2.78-15.06-3.3,1.15-11.23,12.18-2.78,15.06m17.85-9.3c5.55,7.7,26.56-2.65,11.89-6.18,2.44,15-11.1-3.83-11.89,6.18M319.92,943.71c-2.11-18.17-22.54-17.38-21.57-38.73-41.12,5.77-94.49-24.63-125.87,1.92,6.54,4.42,11.12,10.9,15.27,17.77,66.42,1.91,82.13,71.23,156.7,54.7,4-9.57.49-10-.33-21C306.57,955.1,285,937.84,254,941.7c26.51-13.86,35.93-5.07,66,2m149.21-44.34,9-.13c0-2-.08-4-.11-6l-9,.15c0,2,.06,4,.1,6M520,892.59c-4.33,1.73-15.54-3.27-14.94,3.23,4.32-1.7,15.55,3.26,14.94-3.23m69,5,6-.09c0-2-.07-4-.1-6l-6,.07c0,2,.06,4,.1,6m80.81-7.24c-5.24,1.81-17.67-3.36-17.93,3.28,5.24-1.81,17.67,3.35,17.93-3.28m332.74,1c17.05,7,34.65-3.89,56.94-.86-12-10.83-49.57-6.82-56.94.86M538.2,907.33q-.73-11.47-12.15-11.85c.47,7.67,4.52,11.6,12.15,11.85m701.14-19.67c-5.25,1.81-17.67-3.37-17.94,3.26,5.24-1.78,17.65,3.38,17.94-3.26M322.39,907.6q0,3,.08,6c7.44,4.57,8.65-10.33,2.87-9-.15,1.83-.41,3.56-2.95,3m326.74,1c10.55,3.59,28.81-.78,38.95-.58,6,2-1.59,17.92,9.23,14.89q-.14-9-.27-18c-15.94,1.61-41.39-16-47.91,3.73m-185.81,2.83c3.52,2.46,8.08,3.84,15,2.77-.16-10.44-12.18-9.65-15-2.77M562.26,913c5.15.07,7.64-2.43,8.89-6.16-4.7.36-10.39-.23-8.89,6.16m59.95-.91c20.1-6.14-9.13-9.35,0,0m504.47,58.42c-36.93,60.24-147.35,87.66-185.68,11.83-41.81-1.55-32.66-55.75-64-68.14,3.19.09,7.59-1.51,3-3-26.61-8.21-65-8.81-89.68,16.39,3.36.58,4.71,3.27,6.08,5.91-23.7,31.21-33.8,75.64-91.82,73.49-28.61,21.93-97.4,13.43-117-10.24-15.13,10.17-15-12.19-21.27-17.68-14.23-12.53-38.75-7.13-48.32-23.3-6.67.54,4,7.48.22,15-34.93,35.85-24.11,95.82-15.86,138.43,29.54,4.21,22.82,44.36,31,65.62,3.73,9.74,10.56,11.17,12.3,20.85,4.12,22.75,2.42,56.66,10.18,77.94,6.42,17.54,7.4,37,12.81,53.88,6.9,21.47,29.4,40.56,21.86,56.75,12.76-7.86,24.84,5.58,36-.53,1.26,18,25,12.74,33.33,23.5,0,4-5.22,2.82-5.9,6.1,17.53,8.48,10.79,8,27.29,20.62-4.47.57-11.08-.91-11.94,3.17,23.66,11.44,30.36,49.72,57.93,65.21,5.67-.42,1.94-10,8.86-9.12,35.3,14,59.53-32.46,104.48-28.63.62,16.5-1.74,16.39,9-.14,20-.31,41.94-2.65,51.11,8.22,79.43,5.25,68.93-77,106.18-112.75-7-15.79,6.09-37.45,14.27-48.28,12.68,4.38,30.52-5.94,44.94-.7,14.74-33,54.76-57.2,61.62-88.05,1,3.62-8.52,10.48-9,3.13,5.48-20.89-24.08-44.36-39.51-35.43,8.2-2-7.74,18.75-17.71,18.29,5.78-17.07-13-20.27-6.49-33-13.49,3.68-15.47,18.5-29.65,21.49,17.82,3.64,25.67-1,33.14,11.52-19-.72-37.23-.69-41.77,12.66,8.23,15.59,32.29-3.32,42.13,11.37-19.57,2.13-30-2.56-38.87,6.6,5.45,7.58,27.93-2.42,33,5.49-15.26,8.38-38.54,1.52-47.89,3.74,5.28.64,6.91,5.06,6.18,11.93-14.91.31-12.14,17.78-23.64,21.39,5.15,1.09,7.6-4.57,9-.14-6.57,11.36-9.59,26.19-26.55,27.44-.1-4-5.29-2.65-6.08-5.91,2.56-8.84,2.54-9.27-.29-18-10.66-2.86-22.32,3.15-32.91,3.49-57.6,1.87-120.48-4.92-158.68,11.43,58.81,15.76,106.14-.09,161.87.54-16.3,21.38-55.46,30.48-86.5,28.36.36-3.57,5.23-6.91-.15-9-7.12,14.11-60.79,17.42-63-2-33.43,8.22-68.79-25.14-66.9-62.08,1.7-32.52,42.45-69.56,46.5-96.84-5.39-7.66-4.66-21.63-12.41-26.84-.75,12.55,6.61,14.61.38,24,1.16-28.71-33.6-36.42-24.94-62.71,8,9.07,11.12,23.08,21.43,29.72,0-25.55-13.25-18.69-18.57-38.77,11.45-2.38,8-22.43,20.77-15.33,2.76-12-9.11-8.93-6.33-20.93,6.25,1.65,9.77,6.14,15.11,8.77-.62-8.5-5.67-12.43-6.31-20.94,7,1.94,8.17,9.86,15.18,11.78,4-6.9-7.9-11.15-.19-12,7.53,2.4,11.9,8.06,21.11,8.72,6.76-4.3,11.46-10.58,17.74-15.3-9.55.43-13.55-22.36-3.35-24,.85,16.53,15.11,39-2.27,48.09-30-7-62.28,42.06-29.11,57.53,32.31-22.2,64.17,31,105,7.42,6.11.78,6,8,12.11,8.82,10.91-18.65,24.19-45.22,47.31-42.77,10.62-23.53-17.14-35.2-18.76-50.79,15.11-3.29,42.9.92,36.42,29.49,48.6,33,42.52,74.1,97.32,91.65,3.83-.23,4.1-3.92,8.94-3.14,13.55-24.32,32.16-43.7,47-66.82,33.69-8.65,46.57-37.57,68-58.09,2.27-16.1-6.63-46-.91-60.06,5.12,2.82,7.83,8.17,6.26,17.92l12-.18c7.84-19-6.91-28.75-18.64-41.77-9,18.14-13.18,28.93-47.54,27.76m-24.42-29.68c17.39-1.51,36.07-23,53.63-21.85-.6,8.3-11.05,7-14.81,12.24,9.29.15,14.27-3.89,20.89-6.32.13-8.21-5.09-6-.18-12,9.38-1.65,12.35,6.88,14.94-3.22-12.64-15.52-27.26,12.21-44.95.69-5.9,2.15,1,16.74-5.73,18.11-9.23-9.85-17.91-1-27.07-5.59.88-4.1,4.18-5.82,2.81-12.07-13.47-11.73-44.42-14-66.05-8,8.51,19.68,34.85,20.93,63.24,20.09-3.83,10,2.21,13,3.28,18M502.36,916.89c3-.06,6-.1,9-.14,0-2-.06-4-.1-6-3,0-6,.1-9,.15,0,2,0,4,.07,6m971.18-2.75c-2.95-5.55,8.81-10.19-.19-12-.83,1.84-7.28,11.68.19,12M604.61,939.36c5.1-15.06,65.5-3.65,47.65-21.74-14.53,11-56.81-4.63-47.65,21.74m95.88-4.46c.37-5.57,10.13-2,11.9-6.2.73-6.86-.89-11.26-6.18-11.91,3.17,9.26-15.78,11.91-5.72,18.11m206.65-12.16c8.15-15.58-14.37-7.16,0,0M331.82,937.51c-2.26-8.11,14.17,1.93,11.91-6.19-4.47-1.5-7.63-4.33-12.1-5.82,4.23,6.79-7.53,11.42.19,12m137.91.91c22.7-6.5,45.77,18.68,59.89-3.9-17.41-5.42-50.14-16.66-59.89,3.9m191.61-14.94c-9,10.28,11.21,8.95,0,0m27,2.6c-3.83-.1-4.23-3.79-9.06-2.86-4.54,7.45,10.33,8.66,9.06,2.86m36.14,11.47c4.46-.58,11.08.9,11.94-3.19-3.79-1.16-6.19-3.79-6.14-8.92,2.33-.7,5.91-.17,6-3.09l-12,.18c2.25,9.22,2.2,5.74.24,15M955.14,925c6.19,5.15,5.84-2.34,12,2.79.66-8.78-11.8-11.36-12-2.79M673.56,938.33c-5.31,1.86-12.58-8.62-15,.21,1.84,1.71,14.33,6.81,15-.21m356.81,6.58c2-7.53,8.06,5.45,15,2.78,5.37-13.7-10.85-5.06-12.17-11.82,0-17.15-8,12.48-2.86,9m140.72-11.15c-4.29-.64-5.13-4.87-9.08-5.87-2.54,6.22,8,13.37,9.08,5.87M559.94,958.07c0-1.65,2.39-3.45,3-.06.05,3-2.38,3.63-2.91,6.06l15-.23c-8.53-10.89-8.16-6-3.31-21l-9,.15c.13,4.48-10.95,12.46-2.78,15.06M694.67,947l9-.13-.09-6c-3,.06-6,.07-9,.13q.06,3,.1,6m269.73-4.09c4.67-8.46-13.07-8.13-12-2.84,5.21-.31,9.33.53,12,2.84m51,5.22c.08-5.17-2.43-7.67-6.14-8.92-.07,5.18,2.43,7.67,6.14,8.92M446.06,959.79c8.5.4,20.52-2.89,21.08,5.71-13.75,5.24-40.14-.28-41.83,9.63,16.81-2.35,11.28,6,3.15,9,4.78,2.35,45.76,2.13,38.85-6.6-2.78,5.6-24.73,5.45-24-2.65,11.69-6.8,48,4.22,56.76-12.86-12.76-1.78-2.34-8.58-12.18-11.85-3.38,7.19-36-3.26-41.82,9.64m-15,.23c3.58,3.73,12.49,2.23,11.89-6.18-5.58.5-10,2.12-11.89,6.18m290.69-4.41c5.58-.51,10-2.14,11.91-6.19-5.28.77-15.06-2.81-11.91,6.19M628.93,960c5.2-.29,9.33.53,12,2.81,2.09-10.28-11.62-11.53-12-2.81m44.93-.68c4.51-9.16-15.62-7.68-15-2.78,7.21-1.33,6.6,5.39,15,2.78m27-.41c4.71-.36,10.4.24,8.9-6.15l-6,.09c.05,3-2.4,3.62-2.91,6.06m383.66-2.82c15.83-4.35,41.07.47,50.81-9.79-12.5,4.57-43.5-6.61-50.81,9.79M590,963.62c4.71-.36,10.41.24,8.9-6.15-2,0-4,.07-6,.09.06,3-2.36,3.62-2.91,6.06m470.51-7.15c2,0,4-.05,6-.1,0-2-.07-4-.1-6-2,.05-4,.07-6,.1,0,2,.05,4,.08,6m-68.89,4c4.68-8.44-13.05-8.1-12-2.83,4.09.88,5.81,4.2,12,2.83m42,2.36c7.64-.47,15.41-.8,14.85-9.24-5.19,2.85-16.1.14-14.85,9.24M701.07,973.95c11.55,14.44,36.89,1,41.83-9.65-9.29-2.87-34.59,1-41.83,9.65m311.59-10.74c5.17.07,7.65-2.44,8.9-6.13-4.71.34-10.41-.26-8.9,6.13M632.07,969c-2.6,11,19.89,6.56,18-.27-8.8-2.57-9.23-2.56-18,.27m428.78,8.5c20.51-.32,20.57-2.1,38.91-3.6-2.52-14.11-8.43-8.84-18.17-11.74.66,6.53-2.31,9.59-8.85,9.14-.76-5.32,2.79-15.08-6.16-11.94,4.12,13.65-.26,9.52-5.73,18.13m-398.58,6.07c-6.79,2.29-23.48-5.06-20.89,6.32,19.6-1.66,46.68,4,53.79-9.83-5.55-.37-2-10.16-6.17-11.91-13.09-2.89-13.68,6.41-20.84,9.33,2-7.51-13-12.54-15.06-5.8,4.41,2.55,9.56,4.36,9.17,11.88m377.55-8.76c7.63,3.05,13.13-10.33,5.81-12.1.05,6-8.12,3.92-5.81,12.1m-434.53,6.61c4-.07,8-.14,12-.18,2.18-11.61-14.53-11.35-12,.18m347.58-8.29c8.18.15,6-5.09,12-.18,4.51-9.13-16.78-8.8-12,.18m38.87-6.59c-2.58-2.51-8.53,2.31-8.95,3.11-2.74,5.34,11-1.08,8.95-3.11M971,981.87c-2.45,11.66,13.16,4.7,9.26,17.87,39.7-8,79.76,8,107.67-16.66-27.18,6-73.27,6.87-101.8,7.59,2-12.85,30.11-.32,32.77-12.54-5.79-.2,5-11.81-6.18-11.92-6,18.22-28.43,10-41.72,15.67m245.6-12.77c11.17,12.53,39,15.16,44.9-3.67-15.69.17-31.71-6.47-44.9,3.67m-728.27,8.08c-4.35,1.72-15.56-3.26-14.95,3.24,4.33-1.71,15.54,3.27,14.95-3.24m81,4.79,9-.15c0-2-.06-4-.08-6l-9,.16c0,2,.05,4,.09,6M407.67,996.44c7.82.89,54.2,3.87,62.88-4-22.19-.64-53.1-4.43-62.88,4M198,1005.62c.72-6.2,13.25-.91,11.85-9.18-7-1.51-20.58,5.17-11.85,9.18m-18,.27,12-.17c-.06-2-.07-4-.11-6l-12,.21c0,2,.06,4,.11,6m485.57-1.38c18.29,2,27.11-5.2,44.92-3.67-1.41-15.71-33.94.71-44.92,3.67m632.31-12.61c2,0,4,0,6-.09,0-2-.07-4-.11-6l-6,.1c0,2,.06,4,.1,6M206.94,1005.5c-8.07,6.87-13.1,7.91-20.82,9.33-6.36,7.13,23.26,18.45,18.06,5.73-7.44,6.23,3.32-9.57,2.76-15.06m1079.12-1.38c-1.4-5.68,3.82-18.18-6.2-14.95,1.72,5.33,1.72,12.46,6.2,14.95m-1129.9,11.15c2,0,4,0,6-.09,4.55-7.46-10.3-8.68-9-2.86,1.82.16,3.55.4,3,3m1099.94-10.71c-.77-5.31,2.79-15.08-6.17-11.91.49,5.58,2.12,10,6.17,11.91m15-.23c.76-6.86-.87-11.28-6.15-11.92.49,5.58,2.1,10,6.15,11.92m-848.15,9.9c15.46-1.68,42.67,5.79,53.86-6.83-19.84.46-41.63-1-53.86,6.83m575.49-2.75c17.2-4.64,37.67,11.45,41.87-6.63-13.07-5.36-31-6.08-41.87,6.63m-779.19,11.86c5.66,6.2,24-3,20.84-9.33-4.73,8-20.83-6.87-20.84,9.33m39,5.4c1.06-15.46-6.45-7.81-12.17-11.83.5,7.66,4.54,11.58,12.17,11.83m29.85-9.46c-8.43,2.62-7.83-4.1-15-2.78-5.08,13.55,16,10.56,15,2.78m767.24-8.67c3,0,6-.1,9-.14,0-2-.05-4-.08-6-3,0-6,.09-9,.12.05,2,.07,4,.11,6m-898.65,40.7c6.93-1.05,11.5.31,15,2.78,7.4-16.88,1.33-11.58,2.56-27.06-2.61,8.19-5.69-7.92-15-2.78-2.69,12.56,1.66,14.79-2.58,27.06m263.48-19c15.22-3,42.25,5.55,47.87-6.75-14.1-7.64-35.42-2.59-47.87,6.75m-215.72,6.28c-4.24-14.83-14.23-4.49,0,0m54,2.19c14.62-3.24,22.29,2.64,32.86-6.51-8.8-3.1-25.64-4.79-32.86,6.51m71.9-1.11c3,0,6-.07,9-.13,0-2-.08-4-.1-6l-9,.14c0,2,.06,4,.08,6m-128.77,8c4,0,8-.12,12-.19,0-2-.07-4-.08-6l-12,.2c0,2,.07,4,.1,6m1207.65-24.38c-8-.48-31.68-4.2-38.87,6.61,16.6-2.59,63.57-5.14,38.87-6.61m-1048.67,31c1.2-4.73,9.38-2.71,5.81-12.1-6.68-2.13-12.18,11.25-5.81,12.1m53.79-9.82c12.24,10.63,39.48,5.26,57,2.13-11.46-9.57-41.26-5.74-57-2.13m-155.6,17.38c12.45-4.66,33.79-.68,41.82-9.64-6.85-2.08-23.31,5.76-21.06-5.69-8.63,2-15.3,11.61-21,.32a11.2,11.2,0,0,0,.23,15m51-.75c4.19,5.44,19.63-12.65,12.06,5.82,12.59-9.18,23.09-2.32,29.74-15.49-14.84-2.59-20.26,4-26.83,9.42-5.7-5.63-.44-7.55-.23-15-7.43-.32-14.54-.33-14.88,6.23,18.06-3.84-.33,8.4.14,9m77.78-10.22,6-.09c0-2,0-4-.08-6l-6,.09c0,2,.06,4,.1,6M177.77,1057c3,0,6-.07,9-.12,0-2-.06-4-.09-6l-9,.15c0,2,.06,4,.1,6m1252.73-16.06c11-.15,22-.29,33-.48-4.27-12.36-27.79-9-33,.48m-74.92,1.18c9.24,9,33.95-9.57,45.05,5.3-11.4,11.06-36.18-6.24-38.73,15.63,6.48-3.84,32.29-14.73,33,2.49-35.55,15.16-34.58,77.79-10.4,105.31,0-3-.11-6-.15-9,23.68-28.27,63-41.34,85.86-70.4,4.3,1.1,5.12,3.52,9-.12-3.62-17.23-1.22-23.94-3.67-45-20.56-3.22-55.28,12.26-60.08-8.09-25.38,2.1-40.89-4.38-59.9,3.92m-53.89,3.82c2,0,4-.07,6-.07,0-2-.05-4-.09-6-2,0-4,.06-6,.1,0,2,.08,4,.09,6m33-.5c.66,4.2,19.63,1.6,17.89-6.29-6.15,1.92-20.89-4.52-17.89,6.29M157,1069.35q2.52-11.75-9.13-8.88c-2,8.09,6.29,5.69,9.13,8.88m272.7-4.17c10.5,8.06,21.4-3.27,36-.55-7-12-32.43-4.68-36,.55m-27-2.58c-4.47.56-11.05-.9-11.95,3.19,4,3.84,11.22,3.79,11.95-3.19M268,1076.67c7.44.34,14.55.34,14.89-6.24-4.58-4.71-12.62.27-14.89,6.24m20.94-3.33,12-.18c0-2-.07-4-.1-6l-12,.18c.05,2,.08,4,.11,6m86.85-4.33c-1.06-2.4-8-3.49-9,.14-1.88,7,11.81,6.34,9-.14m-215.62,12.29c1.59-6.26,4.56-6.42,8.95-3.12,2.66-14.56-21-.17-8.95,3.12M445,1083c13-6.7,26.46,4.57,38.9-3.6.41-7.51-6.82-7.18-9.17-11.87.26,15-27.54,2.81-29.73,15.47m-93-1.57c.1-3.87,3.77-4.22,2.86-9.07-3.52.53-8.52-.4-8.95,3.14,4,0,2.83,5.23,6.09,5.93m23.93-3.38c10.23,9,8.9-11.23,0,0m60,2.1,6-.1c0-2-.07-4-.1-6-2,0-4,.06-6,.1,0,2,.07,4,.09,6m743.38-2.31c11.12,2,7.31-10.63,11.75-15.19l-12,.18q.12,7.52.24,15m350.54-11.33c-4.3-.66-5.13-4.85-9.1-5.86-2.51,6.23,8,13.36,9.1,5.86M265.23,1091.72c6.48,6.36,16.34.88,17.89-6.26-7.95.15-17.67-1.4-17.89,6.26m-92.81,7.43,6-.1c4.55-7.45-10.3-8.68-9-2.84,1.84.12,3.55.37,3,2.93m287.7-4.36c10-.17,20-.31,30-.48.73-10.72-30.46-7.63-30,.48m698.59,10.38c9.5,3.63,16.37,2.25,26.92-3.41-16.06-3.89-3.38-9.46-.26-18-17.74-1.46-17.34,14.74-26.66,21.43m-980.21-.1c10.25,9,8.93-11.23,0,0m800.17-12.18c-3.85-.1-4.2-3.79-9-2.84-4.54,7.44,10.31,8.64,9,2.84m-23.88,6.38c4,3.84,11.23,3.8,11.94-3.18-4-3.84-11.23-3.79-11.94,3.18m-482.46,10.36c6.78-2.3,23.47,5,20.9-6.33-7.81,1.29-16.43,1.78-20.9,6.33m30.24,17.55c0-2-.06-4-.09-6,1.82-.2,3.54-.5,2.95-3-6,.11-12,.19-18,.29-.94,9.12,9.86,6.07,15.12,8.78M973,1114c-3.92-4.1-13.05-2.8-21-2.7-2.12,13.51,18.87,9.67,21,2.7m234.13,20.46c2.61-3.63,8-28.57-3.41-27-4,5-.37,20.65,3.41,27M188,1135c2.1-6.7-11.23-12.23-12.09-5.83,4.47,1.5,7.63,4.33,12.09,5.83m1291.78-10.63c-7.67-.21-6.11-10-6.27-17.92-4.48.56-11.07-.92-11.93,3.17,5.33,3.81,13.33,20.54,18.2,14.76m-553.86,44.46c13.22,1,23.14-1.15,29.86-6.45-10.36-18.13-22.9-54.8-45.59-41.37,6.12,9.27-8.52,11.68-2.72,18.07-11.87-8.67-23.51,3.39-26.78,12.42,10.48,5.27,66.73,1.32,45.22,17.32m230.07-48.55c4,3,23.22,2.88,23.88-6.36-9.05,1.07-23.37-3-23.88,6.36m-359.49,14.48c.08-5.17-2.41-7.67-6.13-8.93-4.21,4.46-4.23,11.7,6.13,8.93m-314.68,4.77c6.55,3.17,32.2,3.75,17.89-6.28.62,8.51-18.51-2.21-17.89,6.28m668.35-7.15c3.87,4.11,14.7,1.07,15.12,8.77-11,2.1-20.77-9.05-20.89,6.32,11.14,2,12.79-5.31,23.94-3.35-4.95-13.68,12.34-5.74,11.75-15.2-14.57,3.3-24.81-6.77-29.93,3.46m308.69-4.71,6-.09c4.56-7.46-10.3-8.68-9-2.86,1.84.14,3.58.39,3.05,3m-632.29,12.62,6-.1c0-2-.06-4-.08-6l-6,.08c0,2,.06,4,.09,6m-12,.19c-17.19,6.11-24.31,16.26-41.72,15.65-4.07-5,.79-19.12-9.28-17.88-6.38,38.92,61.65,34.17,51,2.22M497,1157.31c7,2.07,22.51,7.26,20.88-6.33-8.6,6.64-17.31-5.21-20.88,6.33m464.52-7.07c4.71,12.56,16.22,6.06,24,2.62-1.71-20.77-19.4,4-24-2.62m467.64,1.88c4.22-9.7,16.22,11.38,17.94-3.25-3.57-1.4-6.83-3.09-9.09-5.87-.06-3,2.38-3.62,2.91-6.06-7,.33-17.89,11.9-11.76,15.18m27-.4c2.48-6.93,15.73,8.58,21-.31-1.79-7.28-2.8-15.41-12.19-14.83-3.73,2.59-17.92,9.84-8.78,15.14m-443.72-5.26c-19.26-3.17-6.44,9.29,0,0m185.9,3.19c2,0,4-.07,6-.1,0-2-.05-4-.11-6-2,0-4,.06-6,.1,0,2,.06,4,.1,6m15.07,5.78c.73-6.86-.9-11.28-6.18-11.94.5,5.59,2.13,10,6.18,11.94m-71.87,4.08c14.28-1.3,19.83,6.12,23.88-6.38-12.44-3.16-17.2-1.86-23.88,6.38m-860.07,16.07c8.6.46,16.37.14,14.86-9.2-9.45-1.32-12.19,3.92-14.86,9.2m212.83-.23c12.24-3.26,23.72,9.88,23.89-6.38-9.78-.79-18.27-6.14-23.89,6.38M844.94,1170c7.58-10.09,23.69,5.69,26.88-6.42-12.78-1.06-30.58-2.59-26.88,6.42m158.75-8.43c11.77-4,7.38,8.63,15.12,8.78,0-2-.06-4-.09-6,1.82-.19,3.53-.5,2.95-3-.71-4.41-27.29-4-18,.27m48,2.27c-6.51-2.41-10.33-7.61-21.07-5.69-.81,8.22,17.6,12,21.07,5.69m336,18.91c20.74,3.14,18.69-24.05,35.74-15.55-1.71-30.49-38.16-3.1-35.74,15.55M314.55,1181.1c5.57-.5,10-2.13,11.89-6.2-5.66.75-6.66-3.28-12-2.8q.08,4.47.15,9m1129.88-14.19c13.49,3.9,28,2.49,35.84-6.56-10.53-2.78-27.07-4.3-35.84,6.56m-341.62,8.2c7,2.51,6.66-15.38,2.91-6.06.3,4.23-8.65,3.58-2.91,6.06m48.36,26.31c-.49-8.65-12.86-5-12.21-14.85,6.14-1.88,20.89,4.53,17.89-6.26-7.19-1.74-21.69,4.09-24-2.67,4.81-7.16,20.56-3.68,26.84-9.41-9.72-8-19.85,2.62-33,.5-3.33,13.55-9.14,11.26-14.71,18.23,10.69-2.61,15,6.18,9.18,11.88,12.25-3.33,29.93,3.42,30,2.57M1501.31,1163c-5.24.92-15.09-8.22-18,.29,2.13,2.32,16.85,6.43,18-.29m-530.36,14.08,6-.08c0-2-.07-4-.09-6l-6,.09c0,2,.05,4,.08,6M296.7,1190.38c4.49-9.13-15.63-7.66-15-2.78,3.5,2.46,8.09,3.84,15,2.78m197.79-3c6.19-1.87,19.74,3.42,20.94-3.31-5.55-5.44-16.82-1.34-20.94,3.31m335.74.91c-26.82-1-12.87,5.55,6,2.9,4.29,1.12,5.09,3.54,9-.13,7.16,7.37,60.73,2.39,65.95-1-20.62,2.32-19.5-9.87-27.2-14.62-13.55,12.88-37,9.43-53.78,12.85m176.79-5.7c.26-8.6,20.59,2.29,20.88-6.33-9.64-4.32-27.18-1.36-20.88,6.33m-692.39,4.53c-4.34,1.67-15.53-3.28-14.94,3.23,4.33-1.72,15.55,3.27,14.94-3.23m27.11,8.59c.37-3.54,5.24-6.9-.14-9-.37,3.55-5.23,6.86.14,9m-71.87,4.1c2,0,4-.07,6-.1-.06-3,2.38-3.59,2.91-6-3.85-.12-4.21-3.79-9-2.88.06,3,.1,6,.16,9m1169.56,33.3c-3.33,4.66-8.5,7.52-11.82,12.18,10.62-.8,6.14,14,18.18,11.73,6.73-7.94.42-10.21,5.71-18.1,4.48.07,17.25,11.45,15-.24-3.14-1.64-15.21-2-12.27-17.83.59-8.3,11-7,14.79-12.25-10.78-15.29-24.41-27.63-45.43-32.36-25.39,16.42-10.16,52,15.85,56.86m41.22-48.7c.13-9.3-9.19-8.81-18.12-8.74-2.47,14.93,10,12.23,18.12,8.74m8.93-3.14c5.31-.77,15.07,2.81,11.91-6.19-5.58.5-10,2.12-11.91,6.19m-560.26,17.53c.71-6.85-.91-11.28-6.18-11.92-3.73,3.59-2.21,12.5,6.18,11.92m68.74-13.07c-4.34,1.71-15.55-3.26-14.93,3.24,4.31-1.72,15.53,3.29,14.93-3.24m-494.36,16.54c8.49-.65,20.61,2.27,20.9-6.33-6.77,2.3-23.47-5.06-20.9,6.33m-146.79,5.24c-7.06-.84-11.33-4.58-21-2.7.42,8.53,20.81,12,21,2.7m500.65,4.38q6-.06,12-.17c-.44-7.66-5.65-10.43-9.22-14.88,1.06,7-.31,11.55-2.77,15M980.31,1201c5.42,5.53,7.57-2.55,18-.28,1.14-12.35-15.7-2.49-18,.28m-221.74,6.38c9.13-1.31,15.4,7.67,17.95-3.29-2.18-5.47-24.42,1.22-17.95,3.29m27-.42,6-.1c0-2-.06-4-.1-6l-6,.1c0,2,.06,4,.09,6m39,2.43c-28.37.22-2.38,5.17,12,2.79.38-3.54,5.23-6.89-.13-9-.38,5.55-10.12,2-11.89,6.19m110.83-4.71c-13.93,4.94-10-2.32-24-2.63-.23,13.67,21,14.06,24,2.63m-722,26c.19-7.73,11.64-4.49,11.81-12.21-5.78-5.53-7.54-.21-15,.23,3.94,7.46-1.37,9.41,3.18,12m686.11-22.47c-19.24-3.16-6.43,9.29,0,0m-32.77,12.53c1.14,8,8,10,15.16,11.77-5.22-9.94,1.74-10.28,2.66-21.07-3.51.53-8.5-.39-8.94,3.13,9.68,3.25-2.76,8.63-8.88,6.16m84.13,13.74c6.31-10.31-4.3-24.8-21.29-20.7,5.55,8.49,8.76,19.39,21.29,20.7m11.76-15.19c4.34-1.71,15.54,3.26,14.95-3.24-9.4,1.66-12.37-6.88-14.95,3.24m-191.84-.1c-8.19-.15-6,5.09-12,.19-4.52,9.1,16.77,8.78,12-.19m356.61-5.41c7.18,12.69,17.85-2.34,0,0m-770.06,20.72,6-.1c0-2-.07-4-.11-6-2,0-4,.05-6,.1.05,2,.08,4,.1,6m446.54-6.79c6.84.72,11.26-.91,11.88-6.2-5.28.76-15-2.79-11.88,6.2m-596.3,15.06c6.59,6.68,10.19-2.65,21-.32,2.15-14-22.88-10.73-21,.32m21.17,11.72c.5,5.57,2.12,10,6.17,11.91,8.31-8.7,17.95-16.11,26.61-24.44-9.19,2.38-5.89-8.15-15.06-5.77-4.33,7.64.44,24.12-17.72,18.31m518.37-13.9c6-.1,12-.2,18-.28,1.44-12.07-17.46-4.2-18,.28m77.9-1.2c5.67-1.42,18.14,3.81,14.9-6.23-5.31,1.74-12.41,1.74-14.9,6.23m27,2.59c1.14,7,2.15,14,12.17,11.84-6.93-11.45,1-13.62,8.71-18.15-5.88-5.36-15.15,2.65-20.88,6.31m128.86-2,15-.24c0-2-.07-4-.08-6-3,0-3.61-2.37-6-2.91-.26,5.66-9.87,2.21-8.86,9.14m413.42-15.29c-7.13,1.94-21.81-3.44-23.91,3.36,8.83-.6,21.28,8.4,23.91-3.36m-1096.8,19.67-15,.23c-3,16.39,15.15,6.63,15-.23m1055-10c-4.32,1.73-15.54-3.26-14.94,3.24,4.34-1.71,15.57,3.28,14.94-3.24m6,2.93c15.33,7.93,11-10.68,0,0M957,1243.42c-19.23-3.16-6.45,9.28,0,0m443.57-3.74c15.32,8,11-10.66,0,0m-662.21,16.08c5.63-1.4,18.12,3.81,14.88-6.22-7.44-.34-12.42,1.73-14.88,6.22m96,7.55c9.1,4.5,7.64-15.66,2.75-15,2.62,8.43-4.1,7.84-2.75,15m-575.44,5.76c5.2,5.35,11.76-1.1,11.85-9.19-7.88-.72-12.88,1.29-11.85,9.19m1105.82-16.82c-1.55-7.52,13.86,7,14.94-3.24-5.26-3.89-22.86-2.74-14.94,3.24m-908,16.81,6-.1c4.54-7.44-10.31-8.65-9-2.86,1.83.15,3.57.4,3,3m437.64-.65c-43.33-2.54-101.81-.93-122.83,4.88,16.09,14.07,73.25-6.32,102.08,10.47,30.56-11.57,37-2.17,77.88-4.2-7-22.06-44.63-3.84-51.27-20.26.25,5.2-2.19,7.75-5.85,9.11m329.61-8c-19.25-3.19-6.46,9.27,0,0m-797,24.12c10.23,9,8.91-11.24,0,0m797.12-15.14c-8.12,2-23.85-3.44-26.92,3.42,6.81,1.88,25.24,7.39,26.92-3.42m-26.75,15.44c14-2.16,36,3.38,44.9-3.69-9-2.7-40.71-1.4-44.9,3.69m-758.13,17.55c-2.88,17.45,13,1,0,0m-5.81,12.09c.4-3.57,5.24-6.88-.13-9-.38,3.55-5.21,6.88.13,9m21-.31c6.83.74,11.24-.91,11.88-6.2-6.84-.73-11.25.88-11.88,6.2m-38.93,3.6c6.86.73,11.26-.91,11.92-6.2-5.29.76-15.06-2.8-11.92,6.2m680.39-4.34c6.85.73,11.24-.91,11.89-6.21-5.31.78-15.06-2.78-11.89,6.21m107.88-1.65c15.26,3.13,21.4-3.3,27.11,8.6-6.17,1.87-19.76-3.42-20.93,3.33,15.68,7.14,33.16-1.1,50.94-.77,4.44-12.72-15.5-.26-15.12-8.8,8.94-1.18,18.24-2,20.84-9.33-24.13,6.17-42.5-1-62.84,7m-749.18,14.4c-4.06-.9-5.78-4.19-12-2.84-2.11,10.28,11.64,11.54,12,2.84m-59.84,6.91c6.11.8,8.07,5.88,12.14,8.83,3.27-9.49-4.84-7.23-6.19-11.91,1.66,0,3.35-2.49-.05-3,0,4-5.21,2.85-5.9,6.12m140.85-2.14c4.7-.37,10.4.23,8.91-6.14l-6,.08c.05,3-2.39,3.62-2.92,6.06m527.65,4c9.84,0,15,4.85,27,2.59,4.24-11.47-13.41-.36-9.18-11.87,7.33,2.4,19.52,4.36,20.9-6.31-9.48,4.73-13.17,1.25-24,.37,1.4,10.27-3.82,11.14-14.75,15.23m218.71-6.32c9.09-2,25.88,3.45,29.92-3.46-8.95-.08-17-16.82-27.05-5.59,8.7,1.53-4.53,4.75-2.87,9m-857,16c7.65-3.92-2.32-18.21-6.16-8.92,5,0,1.82,8.31,6.16,8.92m87,4.68c-.58,5.7,3.48,6.59,3.18,12,11-.08,20.61-1.63,20.78-12.33-12-2-12.08-2-24,.37m509.47-7.73c-22.81,10.2,9.55-4.28,0,0m-605.22,18.22c6.83.72,11.26-.9,11.88-6.21-4-.88-5.78-4.17-12-2.81q.08,4.48.16,9m863-16.16c5.18.11,7.66-2.43,8.91-6.13-5.16-.07-7.64,2.43-8.91,6.13m41.86-6.64c-8.1,2-23.83-3.45-26.91,3.43,17,9.2-18.92,5.41-17.81,12.28,6.21,1.73,20.75-5.15,18.09,5.73-19.12,3.61-47.3-4.38-38.73,15.62,7-11.29,29-9,35.88-6.54,1,5.87-4,6-5.87,9.09,29.22,20,53.65,64.41,93.72,52.64,10.56-3.09,22.11-38.11,32.7-18.53.59-5.69-3.49-6.57-3.18-12,13.22-2.92,21.56-10.58,32.74-15.51.48-13.72-5.36-20.9-9.47-29.91-18.34-3-16.17,13.86-26.69,18.43,10.78,22.79-21.94,32.11-32.65,21.52,6.88-4.17,9.76-12.24,23.85-9.36,10.47-12.77.69-31.66-12.42-29.86,2.9-6,13.16-4.94,11.73-15.19-11.7-1.31-30.33-.18-35.82,9.56,8-2.2,5.88,6.11,9.12,8.87-2.37,7.53-23.47-3.08-20.83,9.33,12.09-3.41,20.78-3.56,33-.5-8.12,8.1,2.53,7.62,6.16,11.91-16.25,1.94-27.94,8.35-47.84,6.75-12.79-16.37-5.69-18.1-18.54-35.78,10.1,4.56,25.39,2.65,32.93-3.49-7.89-5.69-53,11.09-33.12-8.53m-976.84,23.88c5.24-1.81,17.67,3.37,17.95-3.27-3.92-4.07-18-5-17.95,3.27m35.92-3.57c-7.21,1.37-6.6-5.36-15-2.76-4.47,9.15,15.63,7.67,15,2.76m650.38-6.86c21.41.23,37.48,6,60,5.1-8.24-20.12-49-10.87-60-5.1m-391.37,87.07c-9.2-2-8.73,5.31-17.92,3.27-7.72-19-9.84-36.69-33.75-50.54-1.94-19.38-9.35-33.07-27.53-35.64-6.18,19.63-25.25,26.73-23.13,54.41,19.31,9.86,41.11,14.42,57.24,20.16-17.56,15.57-45.72-6.53-69-5-4.5,17.57,24.37,34.42,48.32,23.3,3.38,22.94,43.91,7.51,48.4,29.31-41.81-1.18-70.07-28.14-102.15-16.47,24.39,25.67,55.93,46,102.52,40.49,6.6,14.56,21.37,20.62,30.48,32.59-26.12,8.2-34.6-26.95-66.28-23,12.36,22.8,28.28,42,48.8,56.34,2-16.87,22.43-15.7,38.68-18.62,3.06-15.38-21.32-2.37-18.24-17.76,18.42-5.72,33.84-14.41,53.66-18.84-6.34-42.25-47.91-48.13-70.07-74m463.33-85.17c0-4,5.22-2.81,5.92-6.08-6.22-3.35-14.25,4.93-5.92,6.08m126,4.11c7.25,1.11,6.44-5.58,14.94-3.24q0-3-.09-6c-3,.06-3.6-2.38-6-2.89,4.58,11.34-13.39.77-8.82,12.13m-836,21.73c10.85.67,6.65-13.27,11.71-18.2-9.88.27-11.32,8.72-11.71,18.2m33-.5c1.71-1.84,6.8-14.36-.22-15-3.39,4.56-10.33,12.8.22,15m-18.08-5.73,6-.1c0-2,0-4-.07-6-2,0-4,.07-6,.09,0,2,0,4,.08,6m104.89-1.59c10.49-1.92,10.06,14,18.08,5.73-.05-3-.1-6-.13-9-9.13,1.32-15.39-7.65-17.95,3.28M1085,1382.68c-28.53,69.54-106.62,109.62-120.18,179-.95,4.85,3.4,10.38,3.22,15-1.24,32.35-36.82,25.65-56.29,42.9,12.36,16.2,27.89-8.4,41.82-9.64,5.21,10.09-1.11,38.84-11.48,33.22.22,18.78,4.56,29.27-2.32,45.09,5.33.61,15-3.27,12.09,5.82-11,2.12-22.86,3.44-29.83,9.46,5.69,1.05,32.4,1,41.9-3.62,3.55-9.8-9.73-2.18-6.17-11.95,31.54-8.38,46.41,6.06,56.76-12.88-16.1-6.08-50,10.09-65.89,4,4.76-8.87,20.49-10.33,29.88-6.47-.47-7.51-5.86-9.32,2.82-12.07,22.92,8.44,44.33-10.14,47.49-30.76-19.68,4.25-31.64,2.26-44.87,6.7,16.7-11.39,38.33-18,44.36-39.71.63,9.26-6.83,17.06.37,24,16.91-3.3,28.4-11.83,26.47-33.45-11.17-9.4-17.08,13.12-26.91,3.41,7.32-11.64,16.85-21.08,26.5-30.45,1.71,4.36-3.27,15.58,3.24,15,18.33-16.7,34.4-35.57,44-60.76-5.66-.24-2.23-9.9-9.12-8.87-10.66,13-27.65,6.23-39-2.42,23.23,8.68,45.22,4.41,53.73-15.82,14.16,13.14,40.13-11.78,35.56-27.57-25-3.13-47.62,6.82-71.89,4.07,19.73-17.29,68.71-6.16,83.5-28.28-18.93-31-33.14-48.48-49.19-80.37-.83,8.44-21.69,29.07-26.61,24.42,3,0,3.61,2.4,6,2.93m-698.5-4.41c-2.32-18.56-28.21-.8-36.1-8.46,1,14.26,30.24-.73,36.1,8.46m101.81-7.55c-3.56,16.25,18,18.12,27.14,11.61-4.56-13.7-12.33-14.25-27.14-11.61m587.39-8.94c-15.72,0-27.06-4.6-45-2.32,1.48,14.38,39.5,10.79,45,2.32m-677,31.32c6.94.86,11.48-.65,14.93-3.22-.77-5.31,2.78-15.09-6.18-11.92,5.82,13.54-11.85,4.27-8.75,15.14m638.37-6.69c-8.93,1.19-18.23,2-20.84,9.32l39-.59c1.75-11-14.34-3.5-15.17-11.77,8.21-2.87,21-1.26,26.87-6.44-7.2.63-32.36-7.26-44.95.7,3.87,4.13,14.69,1.07,15.12,8.78m338.51-14.16c-8.09,2-23.84-3.47-26.93,3.4,8.11-2,23.84,3.46,26.93-3.4m-877.73,37.37c8.52,2.34,7.72-4.35,15-3.23,4.95-12.48-13.82-15.91-18.12-8.76,8.76,2.5,3.44,4.46,3.16,12m530.51-5.07c6,2.73,14.4,9.57,21,2.69,1.49-10.5-20.29-12.51-21-2.69m245.87,5.26c5.65-.75,6.67,3.31,12,2.84,4.68-8.45-13.07-8.11-12-2.84m17.8-12.28c-8.24-5.85-27.81-2.94-26.82,9.43,6.69,4.35,17.07-7.5,26.82-9.43m-653.22,15.95c6.84.75,11.25-.9,11.88-6.18-5.29.75-15.06-2.81-11.88,6.18m380.55-8.81c-5.51-1.07-10.23-4.59-15,.24,1.84,1.7,14.32,6.81,15-.24m272.9,7.89c7.43.34,14.57.34,14.9-6.24q-11.2-.5-14.9,6.24m-281.7,4.28c-.07,4.14,1.52,6.56,3.13,9,8.18-4,40.1-.32,29.79-12.46-8,10.54-25.16-6.2-32.92,3.51m-23.69,18.39c8.21,3.52,38.5,7,41.89-3.64-17.54,4.28-34.21-8.54-41.89,3.64m338.64-5.15-18,.26c.75,5.68-3.27,6.68-2.82,12.06,11.2.07,17.09-5.07,20.8-12.32m27.07,5.6c-4.34,1.71-15.56-3.28-14.95,3.22,4.33-1.7,15.54,3.28,14.95-3.22M1334.77,1448c-19.23-3.16-6.43,9.29,0,0M948.5,1474.87c18.4,3.22,32,7.43,44.9-3.69-12.86-5.36-33.58,6.17-42.08-8.38.75,5.68-3.29,6.7-2.83,12.07M1311,1460.35c4.3,12.05-5.21,10.71-8.76,15.15,12.19,3.07,44.33,7.65,47.85-6.74-17.32-5-28.27,15.52-33-2.49,8.55-3.52,23.35-1,29.87-6.48-18.16-3.84-18.09-.57-36,.56M499.2,1496.73c9.75-.39,16.09-4.1,17.8-12.29-9.74.4-16.08,4.09-17.8,12.29m329.61-8c4.68-8.46-13.07-8.13-12-2.83,5.66-.75,6.66,3.29,12,2.83m98.85-4.49c15.33,7.94,11-10.7,0,0m263.83,2c1.93-8.1-6.28-5.7-9.12-8.87q-2.51,11.75,9.12,8.87m-257.65,9.93c20.92.61,39.85-.7,50.8-9.79-14-3.25-40.14.67-50.8,9.79m-428.36,18.52c6.46.11,24-3.88,14.84-9.23-1.1,7.5-13.67,2.51-9.08-5.86l-9,.14c-1.13,7.24,5.56,6.46,3.22,15m26.79-12.4c10.24,8.94,8.91-11.25,0,0m638.38-6.72c7.66,1.44,11.7,5,11.9-6.17-5.58.49-10,2.1-11.9,6.17m-3,.06c-3.84-.12-4.21-3.81-9-2.89-4.54,7.48,10.33,8.69,9,2.89m27.06,5.59c2,0,4-.06,6-.1.11-3.84,3.78-4.21,2.85-9.06l-6,.1c-.1,3.86-3.78,4.22-2.86,9.06M814.24,1516c12.87,5,28.11-5.12,36.1,8.47-17.53.32-25-4.61-38.92,3.58,36,2.11,55.65-4.64,72,4.92-29.35,2.08-79.76,9.38-108-4.38,8.28,26.28,53.54,8,69.25,20-9.65,9.38-42.92-4.25-47.82,9.73,33.95-2.81,73.74,7.16,101.9-1.55,5.52-5.79.21-7.54-.23-15,13.33-3.81,20.75-13.37,32.69-18.53,2,5.28,10.49,19.37,18.12,8.73-4.7-.2-10.36.58-9.07-5.87,5.1-5.88,24.58,2.2,23.85-9.38-12.11-1.74-31.82,4.41-39-2.4,14.28-9.49,29.46-.47,44.8-9.68-25.22-8.8-42.85,4-60-5.11-20.53,18.65-70.27-4.61-95.67,16.48m-32.87,6.5c9.42-1.65,11.81,6.37,18-.26,2.09-11.31-8-10-12.22-14.82,2.71,9.52-4.58,9.33-5.77,15.09m-248.78.8c6.84.72,11.25-.91,11.89-6.2-6.86-.74-11.25.91-11.89,6.2m36.09,8.46c2.45-3.53,3.83-8.11,2.77-15.08-10.07,3.64-12.83-1.92-17.93,3.3,6.81,2.1,6.73,11.34,15.16,11.78m182.77-5.78c5-.09,10-.15,15-.22-.5-5.61-2.12-10-6.18-11.93-.78,6.14-8,6-8.8,12.15m-233.72,6.55c10.24,9,8.93-11.25,0,0m21.07,5.69c10,1.68,10.36,8.65,21,2.68,1.48-10.49-20.31-12.5-21-2.68m60.07,8.08c-12.71,2.46-17.34,5.06-12.12-8.82-9.38-4.36-20.95-3.18-20.84,9.34,6.22,1.72,11.42,4.47,9.22,14.87,14.38,2.68-1.77-13.47,5.81-12.12.86,9.63,19.54,6.61,17.93-3.27m158.75-8.41c4,3.84,9.08,1.7,11.95-3.19-4-3.83-11.21-3.78-11.95,3.19m-23.89,6.37c2.54-6.22-8-13.36-9.07-5.86,4.28.64,5.12,4.86,9.07,5.86m203.88,2.92c-32.11,25.94-92.89,24.08-100.77,73.62-4.07,1-5.68,4.37-12,3.2,8.6,36.94-26.13,49.37-50.08,57.83-6.36-2.58-9-9-18.12-8.75-19.14,8.33-41.7,35.77-20.1,57.39,58.94,5,87.72-19.26,104.06-55.65,12,12.43-4.39,25.4-5.35,42.15,34.17,11.15,17.9-51.37,38-63.67-2,9.19,3.25,10.9,3.28,18,14.23,0,28.59.18,26.74-15.44-2.27-12.6-13.6,3.09-15.11-8.76,21.3-11.83,14.25-51.26,47.16-51.82q-.19-13.48-.39-27c13.82-3.32,27.38-6.88,26.6-24.42-8.65-4-15.78,2.49-24.07-5.64,0,3,.08,6,.12,9M601.38,1711.47c12.57,21.44,41.13,52.21,60.41,29.12-22.71-7.1-44.87-30.91-45.76-50.38,5.94,6.09,9.6,14.51,21.22,14.69,8.49-9.22-24.22-26-.51-33,.07,11.13,4.86,17.34,9.35,23.89q9-.12,18-.28c.76,5.65-3.29,6.67-2.81,12,12.57-.79,25-1.44,27.11,8.62-17.28,9.65-30-8.92-48.08-8.29-10.84,19,20.35,12.93,27.2,14.61-3.74,4.07-8.93,6-2.83,12.06,8.68,2.28,26.79-8.57,41.82-9.65-38.8-75.55-1.07-142.48,82-127.44,6.3,1.64,8.65,7.32,18.07,5.74,2.92-6,13.19-4.94,11.77-15.17-13.45-12.58-27.41-24.57-54.33-23.21-51.34-36.4-142.53,6-158,59.48,0-1.69-2.48-3.39-3,0,1.15,18.91,1.62,62.7-1.68,87.15m-17.17-143.93c2.33.63,3.51,2.45,3.08,5.93,11.84,1.65,15.49-4.66,20.84-9.32-12,3.83-22-7.61-23.92,3.38m-188.59,17.88,9-.14c0-2-.07-4-.1-6-3,.05-6,.11-9,.14,0,2,.07,4,.09,6m698.45,1.4c9.68-1.43,26,3.57,26.9-6.4-12.38,3.62-11.78-6.16-21.07-5.71,2.28,8.18-5.88,6.14-5.83,12.11m-149.83,2.27c5.72-1.35,12.88-1.27,11.85-9.19-4,.07-8,.12-12,.2,0,3,.08,6,.14,9m179.81-2.74c.07,4,.12,8,.2,12,7.08-2.14,22.2-11.72,17.74-15.29-5.58,6-10.42,5.28-17.94,3.27m143.85-2.18c-3.53-2.46-8.1-3.83-15-2.78-3.93,14.65,13.58,8.21,15,2.78M1082.34,1602c.14-1.84.4-3.57,3-3.05-.42-3.65-1-7.11-6.1-5.93.53,3.54-.39,8.54,3.14,9m65.83-7c-.07,4.14,1.51,6.59,3.14,9,7.24,1.13,6.43-5.57,14.94-3.23,2.39-11.37-13.57-10.43-18.07-5.73m80.92-1.22c11.52,8.11,13-11.22,0,0m3.23,15c10.26,6.3,29.33.16,35.88-6.56-9.4,1.58-8.06-8-15.12-8.76,4,22.24-18,.77-20.75,15.32m-54-2.18c2,0,4-.06,6-.1,3.28-4.37,3.11-7.37-3.13-9-.11,3.86-3.79,4.23-2.88,9.07m-68.88,4.06c2-8.1-6.28-5.71-9.12-8.87q-2.5,11.72,9.12,8.87m-698.28,10.62c-3.11,11.76,18,11.75,18,2.73-4.71-3.56-11.83-9.41-18-2.73m164.89.48c5.15.11,7.65-2.41,8.9-6.13-4.7.35-10.39-.24-8.9,6.13m152.88.69c18.86-5.32,48.3-.37,65.84-7-19.82-5.63-49.44-.05-65.84,7m398.63-3.05c2,0,4-.07,6-.1-.05-3,2.39-3.61,2.91-6-3.83-.12-4.2-3.79-9-2.86,0,3,.1,6,.15,9m-638.33,9.72c2.61,10.1,13,12.1,21.11,8.67.58-5.69-3.48-6.57-3.2-12-9.18-2-10.85,3.25-17.91,3.3m27,2.57c5.14,4.63,13.43-3.81,18.09,5.74-2.16,5.71-8.93,2.23-2.86,9.05-7.43-.33-14.55-.33-14.89,6.25,12.55.48,14.08-5.1,24-.38,6-11.87-1.56-24-18.4-26.73,0,3.95-5.21,2.81-5.91,6.07M1140,1646.2c8.19,2.35,17.12,5.8,6.18,11.92,14.12-.23,21.75-27.11,8.48-33.17q9.82.65,8.87-9.14c-3,0-6,.08-9,.12-6.75,8.24-2.21,27.47-14.54,30.27m50.67-18.8c-.05-4-.11-8-.19-12l-15,.22c-1.92,11.15,4.95,13.21,15.17,11.8m6.08,5.92c3.68-10.23,26-2.38,23.71-18.38-12.21,8.26-17.54.26-26.92,3.41,5.28,5.15-.61,22.88,3.22,15m-623.43,3.47c-1.41-8.4,11.3,7.37,11.95-3.18-2.36-.64-3.52-2.46-3.1-6-5.19-.68-17.66,5.92-8.85,9.14m497.34-16.58c8.64,20.51,33.62-7.48,0,0m155.93,3.64c5.69.58,6.57-3.49,11.94-3.19.71,2.33.19,5.93,3.11,6,12.47-10.54-15.71-13.13-15-2.79m-746.27,8.36c-2.69-2.28-8.53,2-8.93,3.14-4.13,11.53,14.95,1.94,8.93-3.14m332.75.94,6-.1c0-2,0-4-.08-6l-6,.09c0,2,.06,4,.09,6m-98.75,10.52c37.31-1.6,45,.24,86.86-4.35-16.51-18.51-76.24-3.56-86.86,4.35m395.39-18c-2.69-2.28-8.52,2-8.93,3.14-4.06,11.39,14.94,1.91,8.93-3.14m-629,33.61c-8.63-16,26.95-14.87,14.74-15.27-13.81-3.72-31.31,12.75-33-5.5-13.88,1.32-22.74,7.48-26.71,18.43,13.88,7.8,12.07-12.66,26.79-12.44-.24,11.45,8.88,13.21,18.22,14.78m6.18,11.91c-.05-3-.1-6-.15-9-12.41,1-11.72-3.76-21,.32-.6,5.69,3.48,6.6,3.18,12,4.38,1.58,15.44-3.74,15,2.78-1.13,5.81-11.58,2.54-8.81,12.15,17,1.67,16.24-13.83,26.71-18.43,15.48,9.28,21.58-13.27,36-.53-1.76-7.32-7.19-10.89-12.21-14.85-.7,17.06-32,4.35-38.72,15.61m631.87-39.66c-2.88,9.08,6.76,5.23,12.08,5.85,0-3-.1-6-.14-9-5.67-.58-6.56,3.48-11.94,3.17m-209.41,27.22c9,4.28,26.91-4.28,23.67-21.37-12.5-7.67-26.57,4.63-23.67,21.37m-407.76-5.8,9-.14c0-2-.08-4-.11-6-3,.06-6,.1-9,.14,0,2,.06,4,.1,6m54,2.19c8.1,2.92,27.91,7.47,23.84-9.38-8.05,3-17.05,5.12-23.84,9.38M1068,1644.28c4.11-.2,6.59,1.32,9,2.87,1.28-9.38-8.24-11.15-9-2.87m116.92,1.23c.14-1.83.39-3.57,3-3-.41-3.68-1-7.12-6.11-5.92.53,3.53-.37,8.54,3.15,9m23.92-3.36c5.16.08,7.66-2.43,8.9-6.16-4.71.38-10.39-.23-8.9,6.16m-488.35,16.44c3.24,7.25,45.92-3.42,71.91-1.1-18.11-14.33-45.51-.93-71.91,1.1m377.61-5.74c-1-6.91,8.61-3.47,8.85-9.15-4.34,1.72-15.55-3.26-14.95,3.23,4,0,2.81,5.22,6.09,5.92M432.82,1666l6-.09c0-2-.07-4-.1-6-2,0-4,0-6,.07q.06,3,.08,6m692.33-7.53c2,0,4-.07,6-.1,3.29-4.38,3.13-7.39-3.13-9-.11,3.86-3.77,4.22-2.86,9.07m65.88-4c9.73,6.86,13.13,1.31,21.13,8.67,2.08-11.28-3.61-14.55-12.23-14.81,2.84,14-7.83-4-8.9,6.15m-724.9,32.07c-4.55-4.46-17.12-.66-15.17-11.8,9.3,3.78,16.86-8.78,8.8-12.15-5.5,6.5-17.27,6.89-14.67,21.25,12.76-4.23,15.55,17.42,21,2.7m695-28.62c12.47-2.73,14.24,5.62,24.07,5.65,1.63-13.89-21.16-13.58-24.07-5.65m-608.27,15.26c8.71-4.6,11.17,3.24,14.88-6.24-6.93,1.07-11.5-.31-15-2.76.05,3,.11,6,.16,9m542.52-2.24c6.82.73,11.25-.91,11.89-6.19-4.52-4.68-13.43-3.14-11.89,6.19m-374.6,5.72c6.83.71,11.23-.91,11.88-6.21-5.31.77-15.06-2.8-11.88,6.21m88.82,124.8c-4.06-11.08-12-18.15-21.34-23.71-7.87,11.91-19.2,15.92-35.78,12.56,2.43,16.18-21.56,6.64-23.71,18.37,9.8,10.21,30.71,9,33.39,26.54,20.52-6.69,31.36-22.74,47.45-33.76m-.48,165.23c-8.31-12.33-15.38-4.5-27.26-17.61,8.06-9.81-7.52-47.53,11.18-54.24,2.1,19.72-8.31,37.39,3.81,54,2.62-25.11,12.55-84.11,28.66-87.55-8.6-.29-5.68-12.46-6.33-20.94,25-18.64,61.41,4.3,77.55-25.22,25.57,10,23.77-32.08,50.49-30.8,1.62,9.41-10.22,8.08-2.78,15.06,22.51,4.11,12.63-23.24,26.56-27.44,4.87,15.38-7.55,23.72-2.55,30.07,27.89,4.41,19.85-26.07,29.38-39.49-.79,5.91,4.14,5.9,6.12,8.91-2.76,20-8.76,36.84-23.27,45.41-9.67-12.48-20.67-5.37-33,.51-.16,11.36,6.12,16.06,15.27,17.8,20.2-24.73,71.25-19.49,71-64.17,5.95,0,3.92,8.13,12.08,5.82,18.9-19.1,26.86-64.58,34.68-84.64-7.56,3.61-6.78-27.48-21.4-26.71-10.25,6.62-13.4,33.2-26.54,27.44-1-11.83,12.65-9.36,11.65-21.19-25.6,10.6-23.1,48.54-44,63.74-44.17,21.76-84.53,43.56-140.25,41.2-17.24,20.71-44.29,31.89-71.3,43.14-40.7,46.39-51.36,106.27-18.46,165.48,10.24-.22,21.75,13.94,30.06,5.57-4.35-5.68-7.16-12.93-9.3-20.89,5.67.58,6.56-3.49,11.94-3.19,2.61,8.45-4.11,7.84-2.77,15.08,25.82,4.86,2.72-19.46,20.66-21.36-.11,3.83-3.77,4.22-2.87,9,11.62.32,10.4-18.18,2.7-21.08-7.61,7.37-10.87,10.14-11.72,18.21m397.1-300.43c-7.44.44-9.2,5.77-15,.21-4.45,9.32,19.71,8.95,15-.21M1155.45,1679c-.05-3-.1-6-.14-9-3,.05-6,.08-9,.15q-.66,9.83,9.13,8.87m18-.28c7.51.39,9.33-4.76,11.86-9.21-4,.07-8,.15-12,.2,0,3,.09,6,.13,9m-671.25,13.21c7,1.94,12.66,5.21,12.2,14.85,7.45.33,14.57.33,14.91-6.26-4.9-2.88-7-7.91-3.19-11.95-10.73-4.53-1.65,10.23-8.85,9.13-1.81-7.29-2.81-15.4-12.22-14.84.2,4.15-1.32,6.63-2.86,9.07m623.21-18.5c-10.63,14.36,17.6,3.73,0,0m-263.14,43.07c23.12,1.22,38.81-18.77,35.47-33.59-25.86-2.44-28.88,17.29-35.47,33.59M700,1695c1.92,1.64,9.25,12.05,12,2.79-9.92-4.28,8.83-4.79,8.85-9.11-9.48-.34-18.09.15-20.89,6.32m-221.66,9.38,12-.2c1.89-11.88-12.77-9.62-12,.2m72,1.91c9.75-.69,14.51,6.84,14.88-6.24-7.44-.33-14.53-.34-14.88,6.24m368.6-5.61c-2.6-2.5-8.5,2.31-8.93,3.14-2.76,5.31,11-1.1,8.93-3.14m-8.72,18.15c2.86,3.16,11.07.77,9.13,8.87q-11.16-.52-14.88,6.24c18.28,6.44,32.13-.42,47.84-6.75-8.79-6.37-17.15,5.74-21.07-5.68,11.75-4.71,29.59,9.13,35.84-9.54-16.37-7.66-39.52-1.71-56.86,6.86m-119.6,19.84c5.72-1.35,12.89-1.29,11.85-9.19-5.21-5.36-11.76,1.1-11.85,9.19m62.95-1c1.13,7,2.15,14.07,12.16,11.82,5.32-5.41-3.65-11.69-6.27-17.9-.27,3.65-.8,7.11-5.89,6.08m36-.56c5.57-.48,10-2.12,11.89-6.18-5.31.75-15.05-2.79-11.89,6.18m-197.65,12c-9.45,1.61-10.67-5.27-21-2.7.63,22.54-20.33,9.66-32.73,15.53,4.53,16.68,24.52,30.81,36.18,14.47.59,7.47-4.56,9.37-5.76,15.11,16.79,5,26.86,17,45.28,20.35.17-11.68,14.57-9.53,14.65-21.27-3.11-2.88-6.14-5.85-9.12-8.87-11.33-1.16-14,6.13-20.85,9.33,1.61-9.77-2.24-14-3.31-21-11.24-3.06-8.41,7.59-17.9,6.27.07-4.13-1.5-6.57-3.13-9,16.1,1.72,17.49-22.92,29.74-15.46-.79,6.12-5.87,8.08-8.8,12.14,17.15,8.67,35.8-.78,56.89-3.87-9.76-2.1-13.3-10.65-18.26-17.77-11.46,7.4-55.37-18.83-41.85,6.66m86.9-1.32c2,0,4-.05,6-.1,0-2-.07-4-.1-6l-6,.08c0,2,.08,4,.1,6m18-.26c5.57,4.67,31.23,7.54,36-.56-2.35-.63-3.53-2.46-3.08-5.94-16,3.38-23.65-3.44-32.88,6.5m-44.91,3.68c5.16.09,7.64-2.41,8.9-6.13-4.7.34-10.39-.25-8.9,6.13m98.85-4.5c-4.06-.9-5.78-4.18-12-2.83-4.67,8.45,13.08,8.13,12,2.83m30.07,5.55c16.94.68,26.57-5.73,44.91-3.68-12.6-12.72-35.89-3.25-44.91,3.68m-104.7,13.6c7.51.41,9.3-4.74,11.85-9.19-7.51-.4-9.33,4.77-11.85,9.19M773.25,1778c-3.41-7.66-11.68-10.32-18.2-14.76,0,3,.09,6,.14,9,9.4-1.57,11.77,4.11,18.06,5.75m23.94-3.38c5.66-.75,6.68,3.3,12,2.81-3.56-9.4,4.61-7.36,5.81-12.11-4.12.2-6.59-1.3-9-2.86,2.75,9.6-7.7,6.34-8.82,12.15m38.87-6.59c6,6.16,12.8-.1,14.88-6.24-5.3,1.73-12.42,1.73-14.88,6.24m-14.89,6.23,6-.1c0-3,2.38-3.62,2.91-6.05-3.83-.12-4.21-3.78-9-2.86,0,3,.08,6,.14,9m-92.87,4.41c4.46,7.26,30,10.14,29.94-3.46-12.3,3.26-25.66-9.84-29.94,3.46m90,4.64c0,2,.08,4,.09,6,8.18-.39,6.12,4.9,12-.19,0-2-.07-4-.1-6-6-4.91-3.81.34-12,.18m99.5,37.54c5.24,3.62,24.78,2.17,23.84-9.38-7.6-5.92-19.7,2.75-23.84,9.38m-17.71,18.29c-4.07,9.66,18.05,7.33,18,2.73-4.72-3.55-11.83-9.42-18-2.73m-35.86,6.55c-.37,11.32-26.66,19.47-11.59,27.22-4-11.72,8.06-10.2,11.91-6.19,1.92-7.31,17.34-19.94-.32-21m-41.47,33.68c1.8,7.28,2.81,15.41,12.21,14.84,2.35-8.51-4.34-7.72-3.2-15,4.68,10.37,19.84.81,24.05,5.64.63,6.52-10.6,1.54-15,3.24,6,18.71,35.2,4.27,32.81-12.5-16.44,12.07-30.54-9.57-50.92,3.76m158.92,3.59c14.07-5.25,21.25,1.09,39-.58-.6-9.8-38.65-9.2-39,.58m.24,15c10.7-1.53,43,2.5,38.9-3.6-16.7,1.39-28.6-11.94-38.9,3.6m-152.63,17.34c3-4,2.79-11.12,5.77-15.09-11.7-.54-17.4,4.76-20.79,12.32.16-4.68-8.75-1.94-3,0,3.61,3.41,10.65,3.25,18,2.74m48,2.28c6-9.85,7.72,10,15.11,8.77.64-2.33,0-5.92,2.91-6,1.1-10.3-9.12-8.89-12.22-14.84,1.67,0,3.37-2.49-.05-3-2.27,3.08-14.19,11.39-5.75,15.11m-33-2.5c11.41-2.25,14.63,12,24,2.63.4-7.52-4.75-9.33-9.18-11.88,1.6,9.44-13.71,2.46-14.85,9.25m119.78-7.83c-.06,10.24,11.24,8.72,21.13,8.68-.79-12-13.78-11.35-21.13-8.68m-149.57,20.31c.08-5.19-2.42-7.7-6.11-8.92-.08,5.15,2.4,7.63,6.11,8.92m3.09,5.93c5.73,1.22,7.64,6.37,15.07,5.78,3.17-14.23-11.62-13.76-15.07-5.78m63,5.07c3,0,6-.09,9-.16-.5-3.5.4-8.5-3.11-9-.19,4.75-7.62,2.46-5.87,9.11m89.86-4.36c2,0,4-.07,6-.09,4.53-7.47-10.32-8.71-9-2.87,1.83.13,3.56.39,3,3m-2.63,24.05c2.78-10,6,3.27,9,2.88-.74-5.68,3.29-6.69,2.81-12.05-7-1.52-20.57,5.15-11.85,9.17m-5.71,18.12c-10.69-.5-17.95,2.3-20.84,9.33,18.52,6.39,26.07-10.85,38.66-18.61-3.58-3.41-10.62-3.22-18-2.72-3.39,4.49-3.35,7.62.19,12"/></g></g></svg>